<?xml version="1.0" encoding="UTF-8"?>
<svg id="Layer_2" data-name="Layer 2" xmlns="http://www.w3.org/2000/svg" viewBox="0 0 36.58 36.58">
  <defs>
    <style>
      .cls-1 {
        fill: #f2f2f2;
      }

      .cls-2 {
        fill: none;
        stroke: #f2f2f2;
        stroke-miterlimit: 10;
        stroke-width: .58px;
      }
    </style>
  </defs>
  <g id="OBJECTS">
    <g>
      <path class="cls-2" d="m18.29,36.29h0C8.35,36.29.29,28.23.29,18.29H.29C.29,8.35,8.35.29,18.29.29h0c9.94,0,18,8.06,18,18h0c0,9.94-8.06,18-18,18Z"/>
      <g>
        <g>
          <rect class="cls-1" x="9.91" y="14.34" width="3.94" height="12.72"/>
          <path class="cls-1" d="m11.86,12.67c1.29,0,2.33-1.05,2.33-2.35s-1.04-2.35-2.33-2.35-2.33,1.05-2.33,2.35,1.04,2.35,2.33,2.35Z"/>
        </g>
        <path class="cls-1" d="m20.14,20.38c0-1.79.82-2.85,2.4-2.85,1.45,0,2.14,1.02,2.14,2.85v6.68h3.92v-8.05c0-3.41-1.93-5.05-4.63-5.05s-3.83,2.1-3.83,2.1v-1.71h-3.78v12.72h3.78v-6.68Z"/>
      </g>
    </g>
  </g>
</svg>