<?xml version="1.0" encoding="UTF-8"?>
<svg id="Layer_2" data-name="Layer 2" xmlns="http://www.w3.org/2000/svg" viewBox="0 0 36.75 36.75">
  <defs>
    <style>
      .cls-1 {
        fill: none;
        stroke: #f2f2f2;
        stroke-miterlimit: 10;
        stroke-width: .75px;
      }

      .cls-2 {
        fill: #f2f2f2;
        fill-rule: evenodd;
      }
    </style>
  </defs>
  <g id="OBJECTS">
    <g>
      <path class="cls-2" d="m28.33,22.75c-.55-.27-3.22-1.58-3.72-1.76-.5-.19-.86-.27-1.23.27-.36.54-1.41,1.76-1.73,2.11-.32.36-.63.41-1.19.14-.54-.27-2.3-.83-4.38-2.68-1.61-1.42-2.71-3.19-3.03-3.73-.31-.54-.03-.83.24-1.1.25-.25.54-.63.82-.95.07-.09.14-.18.2-.26.12-.2.22-.38.34-.65.19-.36.09-.68-.04-.95-.14-.27-1.23-2.93-1.69-4.02-.56-1.36-2.85-1.22-3.72-.27-.5.54-1.9,1.85-1.9,4.51,0,.62.11,1.25.28,1.84.55,1.9,1.74,3.47,1.95,3.74.27.35,3.77,5.99,9.3,8.16,1.78.7,3.63,1.46,5.58,1.41,1.65-.05,4.03-.9,4.64-2.63.46-1.26.46-2.34.32-2.57-.14-.22-.5-.35-1.04-.62Z"/>
      <circle class="cls-1" cx="18.37" cy="18.37" r="18"/>
    </g>
  </g>
</svg>