<?xml version="1.0" encoding="utf-8"?>
<!-- Generator: Adobe Illustrator 27.3.1, SVG Export Plug-In . SVG Version: 6.00 Build 0)  -->
<svg version="1.1" id="Layer_2_00000028292067522075048890000003438101251052117948_"
	 xmlns="http://www.w3.org/2000/svg" xmlns:xlink="http://www.w3.org/1999/xlink" x="0px" y="0px" viewBox="0 0 448.2 175.8"
	 style="enable-background:new 0 0 448.2 175.8;" xml:space="preserve">
<style type="text/css">
	.st0{fill:#333333;}
	.st1{display:none;}
	.st2{display:inline;}
	.st3{fill:#826565;}
</style>
<g id="Layer_2_Image">
	<g>
		<path class="st0" d="M343,32.9c0.6,1.1,1.3,2.1,1.9,3.2c1.9,3.8,2.5,7.8,2.6,12c0,6.1,0.2,12.2,0.5,18.3c0.2,3.7,0.9,7.3,1.2,10.9
			c0.5,5.3,0.5,10.6-2.5,15.4c-1.3,2.1-3,3.8-5.4,4.6c-0.2,0.1-1.5,0.4-1.6,0.5c0.6,0.8,1.4,0.9,2.5,0.8c-3.6,0.2-2.7,0.7-8.2-0.5
			c0.6,1.5,1.2,2,3.4,3.2c-2.1,0-3.8-0.5-5.4-1.4c-1.5-0.9-2.9-2.1-4.6-3c0.7,1.6,1.4,3.2,2.2,4.9c-1.2-0.5-2.5-0.9-3.6-1.4
			c-6.2-2.8-11.7-6.7-17-10.9c-3.4-2.7-6.8-5.3-10-8.3c-3-2.5-5.8-7.3-6.5-10.9c-0.1,1.5-0.3,3.1-0.4,4.6c-2.4-2.6-4.9-5.2-7.1-7.9
			c-2.2-2.7-3.8-5.6-4.1-9.2c-0.1,0-0.8,2.4-0.8,3.7c0,1.3,0.1,2.6,0.2,3.8c-0.1,0-3-5.4-3-5.4l0.5,4.1c-0.1,0.1-1.3-0.4-1.7-0.8
			c-7.7-5.3-15.5-10.3-24.1-13.9c-10.5-4.5-21.4-7.7-32.7-9.5c-3.1-0.5-6.3-0.2-9.5-0.5c-3.7-0.3-7.3-0.7-11-1
			c-0.4,0-0.8-0.1-1.1-0.2c-0.1,0.1-0.1,0.2-0.2,0.3c1.2,0.7,2.5,1.5,3.7,2.2c0,0.1,0,0.1,0,0.2c-1.6-0.1-3.3-0.3-4.9-0.4l-0.1,0.4
			c1,0.5,2,0.9,3.2,1.4c-4,1.4-7.9,2.3-12.1,1.5c1.9,2,4.5,2.2,7,3.2c-0.3,0.2-0.5,0.5-0.7,0.6c-3.4,1.8-6.2,4.2-8.8,7
			c-2.6,2.8-5.6,5-8.9,6.8c2.5,0.1,4.7-1.1,7.1-2.1c-0.1,0.3-0.1,0.5-0.2,0.7c-1.4,2.5-1.9,5.2-2.2,7.9c-1.1,9.1-2.2,18.2-3.5,27.3
			c-0.5,4-1.7,8-3.6,11.6c-4.4,8.5-11,14.4-20.5,16.8c-4.9,1.2-9.6,1-14.4-0.1c-14.6-3.3-28-9.2-39.8-18.4
			c-4.4-3.4-8.6-7.2-12.9-10.6c-4.7-3.7-9.5-7.3-14.3-11c-5.6-4.3-11.2-8.8-15.9-14.1c-1.5-1.7-3-3.5-4.3-5.4
			c-1.4-1.9-1.6-2.2-2.1-5.2c-0.4,0.9-0.5,1.7-0.5,2.5c0,0.9,0.1,1.7,0.3,2.6c0.3,1.2,0.5,2.2,1.2,3.7c-1.4-1.2-2.5-2.3-3.7-3.3
			c-0.1,0.1,2,3.4,3.4,5.2c-0.7-0.2-1.1-0.4-1.6-0.5c-3.6-1.3-7.3-2.1-11.2-2.1c-2.3,0-4.6,0.5-6.9,0.9c-2,0.4-3.7,1.4-5,3
			c-1.9,2.4-3.9,4.8-5.6,7.4c2.1-0.9,4.2-1.9,6.3-2.8c-7.4,4.9-8,10.3-10.4,16.1c-1.1,2.6-1.2,4.4-2.3,7c-2.2,5.6-5,8.4-5.8,8.7
			c1.1,0.1,2.3-0.5,3.9-1.9c1.1-0.9,3.3-2.9,3.4-2.9c-0.9,2.3-2.6,7-2.4,7.1l4.2-4c0.5,1.6,0.9,3.3,1.5,4.8c1.9,5.6,4.2,11,7.9,15.7
			c4.5,5.8,8.9,11.8,13.4,17.7c3.3,4.4,5.5,9.2,5.7,14.8c0,0.7,0,4,0.1,4c0.8-2.4,1-5.3,1-7.4c0-7.8-2.6-14.3-7.3-20.2
			c-1.7-2.1-3.3-4.4-4.7-6.8c-1.3-2.1-1.9-4.5-1.5-7c0.5-2.9,3.9-4.2,6.2-2.3c2.8,2.2,4.6,5,4.5,8.8c0,1-0.4,1.8-1.3,2.3
			c0.2-1,0.7-2.1,0.6-3.1c-0.1-2.8-1.7-5-3.7-6.9c-1.4-1.3-2.4-1.4-3.8-0.7c-1.5,0.8-2,1.8-1.8,3.6c0.2,2.5,1.2,4.8,2.6,6.8
			c1.3,1.8,2.6,3.6,4,5.4c2.6,3.5,4.9,7.1,6,11.4c1.4,5.7,1.4,11.3-0.8,16.8c-0.6,1.5-1.3,3.1-1.8,4.7c1.5-1.6,2.9-3.3,3.5-5.4
			c1.5-4.7,2.1-9.5,2.2-14.4c0.1-5.6-0.4-11.2-1.5-16.9c1.4,1,2.7,1.9,3.9,2.8l0.1-0.1c-1.5-2.6-4.4-7.8-4.3-7.9
			c2.1,1.6,6.6,4.6,6.7,4.5c-0.5-0.8-1.1-1.6-1.7-2.3c-2.7-3.3-4.8-7-6.2-11c-0.7-2.2-0.8-4.4-0.3-6.6c2.2-8.6,7.6-13.9,16.3-15.9
			c4.1-1,8-0.1,11.9,0.9c5.4,1.5,10.3,4.2,15.2,6.9c7.6,4.2,14.4,9.5,21.3,14.6c7.9,5.8,16.2,10.8,25.5,14.1c5.7,2,11.6,3,17.7,3
			c5.1,0.1,10-0.6,14.8-2.2c6.1-2,10.4-6.3,14-11.3c4.4-6.1,7.2-13,8.8-20.4c0.2-1.1,0.6-2.1,2.2-2.2c3.3,5.1,2.7,10.1,0.1,15.2
			c2.3-1.1,5.7-4.7,4.3-5c-0.6-0.1-0.8,0.9-1.1,1.4c-0.3-1,0.6-2.4,1.2-1.9c1.9,1.5-2.8,3.7-2.1,6.4c3.2-3.2,6.7-1.8,10-0.6
			c2.6,0.9,5.1,2.1,7.3,3.6c1.9,1.2,2.9,1.9,4.3,3.5c0.6,0.6,1.1,2.8,1.3,3.9c1-0.8,1-1.9,1-3.3c1.3,1.3,2.1,2.7,2.1,4.5
			c0.8-1.2,0.8-2.2,0.2-4.8c1.2,0.4,2.2,1.5,3.3,2.8c0.3-2.5-1.4-4-3-5.9c2,0.3,2.9,1.8,4.2,2.8c-0.1-2.2-2.1-4.4-4.5-5.3
			c-0.8-0.3-1.7-0.5-2.5-0.6c-2.8-0.5-5.4-1.8-7.7-3.5c-1.7-1.3-3.5-2.4-5.3-3.6c-1.1-0.6-1.9-1.3-3.1-2.1c0.3-1.5,0.6-3,1-4.4
			c0.5-1.7,1-3.5,1.5-5.2c0.9-2.7,0.2-5.2-0.9-7.6c-0.8-1.9-1.6-3.8-2.3-5.8c2,0.5,4,1,5.1,2.8c1.7,2.8,2.5,6,2.1,9.3
			c-0.1,1.1-0.6,2.2-1,3.3c1.5-0.8,2.2-2.2,2.7-3.7c0.1,1.2-0.3,2.2-1.1,3.1c-0.8,0.8-1.6,1.6-2.6,2.5c1.3-0.5,2.4-0.9,3.5-1.2
			c3.3-1,6.5-0.4,9.7,0.5c1.7,0.5,2.8,1,4.3,2c0.7,0.5,1.6,2,2.1,2.9c0.6-0.8,0.7-1.6,0.2-2.7c1.7,0.8,2.6,1.8,2.6,3.7
			c1.2-1.5,0.6-2.7,0.1-4c1.6,1,2.8,2.2,3.2,4.3c0.4-0.6,0.2-2.4-0.5-5.4c1.2,0.7,1.5,0.5,3.3,2.8c0.2-0.7,0-1.6-0.3-2
			c-1.5-3.9-4.9-4.2-8.3-4.4c-3.9-0.3-7.7-0.7-11.3-2.2l0,0c0.7-2.4,1.5-4.7,2.1-7.1c0.5-1.9,0.9-3.8,1.2-5.7c0.1-0.5,0-1.1-0.2-1.6
			c-1.6-3.9-3.5-7.7-5.8-11.3c-1-1.6-1.9-3.4-3-5.3c-1.8,0.4-3.5,1.5-5.2,2.7c-0.1-0.1,2-2,3.2-2.7c5.4-2.7,11.1-3.4,17.1-3.1
			c10.2,0.4,18.9,4.8,27.5,9.7c5.2,2.9,10.1,6.4,14.7,10.3c2.6,2.2,4.9,4.5,7.2,7c5.7,6.2,11.2,12.6,17.7,18
			c7.7,6.3,15.8,12,24.9,16.2c2.6,1.2,5.2,2.1,7.9,2.9c0.4,0.1,0.7,0.3,1.3,0.4c-1.8,1.3-3.8,2.6-4.8,3.9c1.9-1.7,9-2.3,9.4-3.2
			c0.2-0.5,0.2-0.9-0.3-1.4c0.5,0.3,1.4,0.4,1.4,1.4c0,1.1-6.4,1.7-7.5,2c-0.8,0.3-2.1,0.8-2.8,1.4c2.4-0.8,5.1,0.3,7.3,1
			c-1.5,0.8-3,1.6-4.4,2.4c0,0.2,10.6,0.3,14.8,2.8c5.7,3.4,11.5,6.8,17.2,10.2c1.2,0.7,2.2,1.7,2.8,3c0.9,1.9,1.7,3.8,2.6,5.7
			c0.6,1.4,0.2,2.6-0.6,4c1.5-0.4,2-1.3,2.4-2.5c1.6,1.4,1.8,2.5,0.7,4.8c1.5-0.1,2.2-1.5,2.2-5.1c1.4,1.9,2.6,3.5,2.3,6
			c1.9-2,0.8-3.9,0.1-6.1c1.5,1.3,2.1,2.7,2.2,4.3c0.1,0,0.2,0,0.3,0.1c0.1-0.6,0.4-1.3,0.4-1.9c-0.1-1.7-0.9-3-1.9-4.3
			c-2-2.4-4-4.9-6.1-7.2c-2.6-2.8-5.2-5.5-7.9-8.2c-2-2-4.1-3.9-6.3-5.7c-0.5-0.4-0.7-0.7-1.4-1.3c0.8-0.2,1.4-0.6,2-0.6
			c5.5,0.2,7.4-0.8,12.8-3.7c-0.4,0.4-0.8,0.7-1.3,1.1c-0.5,0.4-1.1,0.8-1.6,1.1c-0.5,0.3-1,0.6-1.7,1c0.4,0.2,0.8,0.3,1.1,0.5
			c-1.4,2.9-1.4,4.5,0.1,6c-0.6-2.4,0.3-5.5,1.8-6.3c0.3-0.2,1.1,0.3,1.1,0.4c-0.2,0-0.8-0.2-1-0.1c-1.2,0.4-2.2,3.8-1.3,5.6
			c0.7-0.7,1.5-1.5,2.3-2.3c0.2,1.3,0.8,3.4,0.8,3.3c1-2.8,2.9-4.1,6.4-3.7c4.6,0.5,9.1,1.3,13.6,2.1c0.8,0.1,1.7,1,2.1,1.7
			c1.2,1.9,2.6,3.7,4.6,4.9c0.3,0.2,1.3,0.6,1.4,1.3c0,1.3-1.3,1.3-1.9,1.2c1.4,1.6,2.1,1.4,3.9-0.8c0.5,2.1-0.2,3.8-1.8,5.3
			c3-0.3,4.1-1.7,4.3-5.2c1.4,1,1.8,1.9,2.6,5.6c1.1-1.8,0.8-3.6,0.5-5.4l0.3-0.1l3,3.7c0.1,0,0.2,0,0.2,0c-0.3-1-0.4-2-0.9-2.9
			c-1-1.9-2.4-3.4-4.3-4.4c-4.1-2.1-7.9-4.7-11.4-7.6c-2.6-2.2-5.7-3.9-8.7-5.6c-2-1.2-4.2-2.1-6.3-3.2c2-4.7,3.1-9.6,3.2-14.8
			c-0.9,2.4-2.8,6.9-2.9,6.9c0.1-0.4,0.3-0.8,0.4-1.2c1.9-5.1,2.5-10.4,1.7-15.8c-0.9-6-1.5-12-2.4-18c-0.6-4.2-1.6-8.4-2.3-12.6
			c-0.4-2.9-0.2-5.8,1-8.5c1.6-3.9,4.5-6.1,8.7-6.8c6.2-1,11.8,0.9,17,3.9c2.8,1.6,5.3,3.8,7.9,5.6c1.3,0.9,2.5,1.8,3.9,2.6
			c2.6,1.6,3.3,1.6,6.4,0.4c-0.1-0.4-0.1-0.8-0.2-1.2c-0.3-0.7-0.7-1.4-1.1-2c-1.5-2.6-3-5.2-3.9-8.1c-0.7-2.3-2-4.5-3.7-6.3
			c-2.7-3-5.3-6-8-8.9c-4.9-5.2-9.6-10.7-13.4-16.9c-2.7-4.5-4.3-9.4-5-14.6c0-0.1-0.1-0.2-0.1-0.4c-0.1,0-0.2,0-0.3,0
			c0,2.2-0.2,4.4,0,6.5c0.5,5.4,2.6,10.3,5.3,14.9c2,3.4,4,6.7,6,10.1c-0.1,0-0.2-0.1-0.4-0.2c-3.1-2.2-8.8-5-12.1-6.8
			c-6.1-3.2-11.5-7.1-16.3-12.1c-2.7-2.7-4.8-5.9-6.3-9.4c-0.2-0.4-0.4-0.8-0.8-1.1c0.1,0.9,0.1,1.9,0.4,2.7c2,7,6.5,12.3,11.7,17.1
			c2.1,1.9,4.4,3.6,6.6,5.4c0.3,0.3,0.7,0.6,0.9,1c-5.4-1.7-10-4.7-13.9-8.7c0.5,0.7,0.9,1.4,1.4,2.1c0.5,0.7,1.1,1.4,1.7,2.2
			c0.6,0.7,1.2,1.4,1.8,2.1c0,0.1-0.1,0.2-0.1,0.3c-2.2-0.8-4.5-1.6-6.7-2.4l-0.2,0.2c1.2,1.1,2.4,2.2,3.9,3.4
			c-1.9-0.1-3.6-0.1-5.3-0.3c-1.7-0.1-3.4-0.3-5.2-0.5c-1.8-0.3-3.5-0.5-5.2-1.1c-1.6-0.5-3.1-1.3-4.7-2c0.9,0.8,1.8,1.5,2.6,2.3
			c0.3,0.2,0.7,0.4,0.9,0.7c1.5,1.3,2.9,2.6,4.4,3.8c0.5,0.4,2.1,1.4,2.2,0.6c0.2-1.3-1.7-1.9-2.5-2.8c1.5,0.3,3.9,2.2,2.9,3.4
			C350.4,40,343.2,32.9,343,32.9L343,32.9z M35,72c1.8,2.4,4.2,3.5,6.9,4.5c-6.4-1.6-11.5,0.2-15.7,5.2c2.9-0.8,5.7-2.1,9-1.5
			c-1.9,0.4-3.5,0.7-5.2,1.1c1.6,0.6,2.9,1.1,4.3,1.6c-2.5,1-4.7,2-7,2.9c-1.1,0.4-2.2,0.7-3.3,1c0-0.1,5-2.7,7.5-3.8
			c0-0.1-6,0-9,0.1c0.3-0.2,0.6-0.5,1-0.8c1.3-1.1,2.6-2.1,3.9-3.2c2.7-2.4,5.6-4.2,9.7-3.7c-1.7-1.4-3.4-2.6-3.7-4.8
			c3.6,1,10.2,3,10.2,3.1C40.8,73.2,38,72.6,35,72L35,72z M344.3,104.5c-3.5,1.9-6.9,1.3-10.5-0.2c1.4,2,3.7,2.7,5.7,3
			c0.3,0,0.5-0.2,0.4-0.3c-0.1-0.1-0.4-0.4-1.1-0.4c0.9-0.1,2.2-0.1,1.8,0.9c-0.5,1-3.6-0.4-5.8-1c0.7,0.8,1.1,1.4,1.8,2.2
			c-2.5-0.7-4.6-1.3-7-1.9c0.5,0.5,0.9,0.9,1.3,1.2c0.4,0.3,0.8,0.7,1.1,1c-2.3-0.7-3.5-2.5-4.3-4.6c1.8,1.3,3.8,2.1,6.1,2.1
			c-0.6-1.3-1.2-2.5-1.8-4c3,1,5.6,2.5,8.6,2.2c-0.4-0.5-0.8-1-1.3-1.6l5.6-0.7c0,0.1-2.4,1-3.6,1.4
			C341.1,103.9,343.1,104.3,344.3,104.5z M389.3,45.5c-0.1,0.1,2.3,2.6,3.5,3.8c-3.6-0.9-7.5-0.5-10.9-2.5c2.8,2.8,6.3,4.1,9.7,5.8
			c-4.9-0.1-12.4-5.7-13.2-9.5c1.1,0.9,2.5,2.1,3.9,3c1.8,1.2,3.9,1.7,5,1.5c-1-1.2-2.3-2.2-2.4-3.9c1.2,0.9,3.7,2.5,3.7,2.4
			c-0.6-1.3-1.1-2.6-1.8-4c1.5,1.7,4.7,4.5,5,4.5C390.9,46.2,390.1,45.8,389.3,45.5L389.3,45.5z M283.1,68.4c1,3.6,3.1,6.3,5.9,8.7
			c0.4,0.4,0.6,1.1,1,1.6c-2.7-2.3-5.7-4.3-6.7-7.9c-0.2,3,0.2,5.8,2.1,8.3c-0.5-0.3-0.9-0.7-1.2-1.1c-1.2-1.5-2.1-3.2-3.5-4.5
			c-1.6-1.5-3.4-2.8-4.4-4.9c-0.1,0.1,0.9,3,1.6,4.6c-2.3-1.6-3.7-3.5-4.4-6.1c0.6,0.9,1.3,1.8,2.1,3c-0.3-2-0.1-3.4,0.4-4.3
			c0.8,4,3.8,6,6.5,8.4C282.5,72.3,282.1,70.3,283.1,68.4L283.1,68.4z M202,43.2c0,0.1-0.1,0.1-0.1,0.2c0.9,0.3,1.9,0.7,2.8,1
			c-2.8-0.2-5.1,1.2-7.5,1.9c3.5,0.6,7.1-0.1,10.6,0.6c0,0.1,0,0.2,0,0.3c-2,0-4,0-6,0.1c0,0.1,0,0.2-0.1,0.4l3.3,1.2
			c0,0.1-0.1,0.2-0.1,0.3c-1.2-0.4-2.5-0.6-3.6-1.2c-1-0.6-2-0.7-3.1-0.7c-2,0-3.8-0.4-5.5-1.6c3.2,0.5,6.1-0.4,9-1.4
			c-0.5-0.5-0.9-1-1.4-1.7c1.9,0,3.6,0,5.3,0c0,0.1,0,0.2,0,0.3L202,43.2L202,43.2z M369,92c0.9,2,1.9,4.4,2.8,6.4
			c-1.8,0.4-2.4-0.1-2.9-0.1c0.5,3,1.1,6.1,1.5,8.9c-0.9-3.9-0.5-4.3-3.3-10.4c1.2,0.5,3.7,1.3,3.8,1.2c-1.6-2.8-2.7-5.8-3-9
			c0.6,1.2,1.1,2.4,2.5,3c-0.2-1.4-0.5-2.5-0.6-4.1c0.7,2,1.4,3.9,2.2,6.2C370.9,93.5,369,92,369,92L369,92z M407.1,56.2
			c0.3,0.8,0.4,1.1,0.5,1.7c-0.5-1.1-1.2-1.8-2.2-3c-0.3-0.4-0.3-0.7-0.3-1C406,54.7,406.7,55.3,407.1,56.2z"/>
		<path class="st0" d="M412.5,69c0.8,2.1,2.1,3.7,3.9,5c2.9,2.1,5.5,4.5,7.1,7.8c0.9,1.9,1.6,3.8,1.5,5.7c0.9,1.4,1.8,2.7,2.5,4
			c0.8,1.6,1.1,3.5,0.8,5.3c-0.1,0.4-0.2,0.8-0.4,1.2c-0.4,0.7-0.9,1.3-1.8,1.2c-0.9-0.1-1.3-0.8-1.4-1.6c-0.2-1-0.4-2,0.6-2.9
			c-0.1,1.4-0.6,2.8,0.6,3.8c1.1,0,1.3-0.8,1.5-1.6c0.6-2.8-1.2-7.2-3.7-8.8c-0.4-0.2-0.8-0.4-1.2-0.6c-2.5-0.8-4.7,0.3-5.9,2.8
			c-1.1,2.4-0.8,4.7,0.2,7c0.9,2,2.2,3.8,3.9,5.1c2.2,1.7,4.4,3.5,6.8,4.9c3.1,1.8,6.3,0.6,7.7-2.7c1.7-4.3,1.8-8.7,0.6-13.2
			c-1.7-6.1-5.5-10.5-10.9-13.6c-1.7-1-3.4-1.9-5.2-2.7C416.7,73.9,414,72.3,412.5,69L412.5,69z"/>
		<path class="st0" d="M432.8,111.7c0.8,0.3,1.6-1.1,1.7-1.1c-0.3,0.5-0.5,1.1-0.9,1.4c-0.5,0.3-1.3,0.5-1.8,0
			c-0.6-0.6,0.1-1.7-0.1-2.7c-2.9,0.5-5.4-0.8-7.6-3c-0.1,0.1-0.2,0.1-0.2,0.2c0.2,0.8,0.3,1.5,0.6,2.2c1.1,2.8,2.8,5,5.4,6.6
			c3.2,1.9,6.5,1.2,8.7-1.8c2-2.7,2.6-5.9,2.5-9.2c-0.1-4.5-1.6-8.6-3.8-12.6c0,0.3,0.1,0.5,0.1,0.8c0,0.3,0.1,0.5,0.1,0.8
			c0.7,3.7,0.5,7.4-0.7,11c-0.5,1.6-1.4,3-2.7,4C432.9,109,431.2,111.1,432.8,111.7L432.8,111.7z"/>
		<path class="st0" d="M389.9,43.9l0.5,0.8c0.3,0.4,0.7,0.7,1.1,0.8c0.5,0.1,1,0.3,1.5,0.3C393.1,45.7,391.2,44.5,389.9,43.9z"/>
	</g>
</g>
<g id="Layer_2_Image-2" class="st1">
	<g class="st2">
		<path class="st3" d="M98.4,0c-1.5,0.6-3,1.2-4.6,1.8c1.4-0.1,2.7-0.2,4-0.3c0.4,0,0.9-0.1,1.3,0c0.5,0.2,1.1,0.6,1.2,1.1
			c0.1,0.4-0.4,1.2-0.8,1.3c-1.4,0.3-2.8,0.4-4.3,0.4c-0.7,0-1.4-0.2-2.3-0.3c0.4,0.8,0.7,1.5,0.9,2.2c0.3,0.8,0.5,1.6-0.3,2.2
			c-0.9,0.6-1.6,0-2.2-0.6c-1-1.1-1.8-2.3-1.9-3.8c-0.1-0.9-0.5-1.1-1.3-1c-1.4,0.1-2.8,0-4.2,0.2c-1.1,0.2-2,0.8-3.1,1.2
			c0,0.2,0.1,0.3,0.1,0.5C81.4,5,82,5,82.4,5.2c0.5,0.3,0.8,0.8,1.2,1.2c-0.4,0.4-0.8,1-1.3,1c-1.2,0.1-2.5,0.1-3.6-0.3
			c-1.9-0.5-3.6-0.3-5.3,0.6c-4.3,2.3-8.9,2.7-13.8,2.1c-2.2-0.3-4.6-0.1-6.8,0.5c-3.7,0.9-7.3,2.3-11,3.6c-1.1,0.4-1.2,0.8-0.3,1.5
			c3.1,2.3,6.3,4,10.3,4c1.4,0,2.9,0.1,4.3,0.5c3.1,0.8,5.9,0.1,8.4-1.7c1-0.7,2.1-1.2,2.4-2.7c0.3-1,1.2-1.9,2-2.7
			c0.3-0.3,0.9-0.3,1.4-0.4c0,0.5,0,0.9,0,1.4c0,0.1,0,0.2-0.1,0.4c1.6-0.7,3-1.5,4.6-2.1c1.7-0.6,3.5-1.1,5.3-1.5
			c0.7-0.2,1.5-0.2,1.8,0.7c0.3,0.9-0.2,1.5-0.9,1.9c-1.4,0.8-2.8,1.5-4.2,2.2c-0.4,0.2-0.8,0.4-1.3,0.6c1.1,0.2,2,0.2,2.8,0.5
			c0.4,0.1,0.6,0.6,0.9,0.9c-0.3,0.3-0.6,0.9-1,0.9c-2,0.2-4.1,0.2-6.1,0.3c-0.2,0-0.5,0-0.7,0l-0.1,0.3c1.4,0.6,2.8,1.3,4.2,1.8
			c1.8,0.6,3.7,1.1,5.6,1.6c2.2,0.6,4.3,1.4,6.1,2.9c1.7,1.3,3.5,2.3,5.6,2.7c0.8,0.2,1.7,0.5,2.5,0.9c1.6,0.7,2.9,0.4,4.2-0.9
			c2.1-2.1,5.5-2.7,8.2-1.5c1.4,0.6,2.7,1.4,4.2,2c1,0.4,2.1,0.6,3.2,0.6c1.5,0,2.6-0.6,3.6-1.8c1.4-1.9,3-3.6,4.8-5.2
			c1.1-1,2.6-1.6,4-2.2c0.3-0.1,1.1,0,1.2,0.3c0.2,0.3,0.1,1-0.1,1.3c-1.2,1.3-2.4,2.5-3.7,3.7c-0.4,0.4-0.9,0.7-1.4,1.1
			c0,0.1,0.1,0.2,0.1,0.3c1.6-0.3,3.1-0.7,4.7-0.9c1.5-0.1,3.1-0.1,4.6,0c0.4,0,0.8,0.6,1.2,1c-0.3,0.4-0.6,1.1-1,1.2
			c-2,0.6-4,1-6,1.4c-1.5,0.3-3.1,0.4-4.6,0.6c0,0.1-0.1,0.2-0.1,0.3c0.3,0.3,0.7,0.6,1.1,0.8c3.6,1.9,6.9,4.1,9.8,7
			c0.7,0.7,1.5,0.6,2.4,0.3c1.7-0.6,3.4-1.2,5.1-1.7c0.6-0.2,1.3-0.2,1.9-0.1c0.4,0,0.9,0.4,1,0.7c0.1,0.3-0.3,0.9-0.6,1
			c-0.9,0.4-2,0.7-2.9,1.1c-0.2,0.1-0.4,0.1-0.8,0.3c0.4,0.1,0.6,0.2,0.9,0.2c4.2,0.3,8.5,0.6,12.7,0.9c3.1,0.2,6-0.9,8.9-1.9
			c0.3-0.1,0.4-0.4,0.7-0.6c1.6-1.5,3.3-3,4.9-4.5c0.4-0.3,0.9-0.6,1.4-0.8c0.4-0.1,0.9,0,1.4,0.1c-0.1,0.5,0.1,1-0.2,1.3
			c-0.5,0.7-1.1,1.3-1.6,1.9c-0.3,0.3-0.6,0.6-0.8,1c3.9-0.8,7.2-2.6,10.5-4.9c-0.2-0.2-0.4-0.3-0.5-0.5c-0.8-0.7-0.7-1.3,0.3-1.6
			c0.8-0.2,1.4-0.4,1.3-1.5c-0.1-1,1.2-1.5,2.2-1c0.8,0.4,1,0.2,1.4-0.4c0.8-1.2,1.6-2.4,3.1-2.9c0.4-0.1,0.9,0,1.3,0
			c-0.1,0.4-0.1,0.9-0.3,1.3c-0.2,0.4-0.6,0.7-1.1,1.4c0.8-0.1,1.2-0.3,1.7-0.3c0.5,0,1,0.2,1.4,0.3c-0.2,0.4-0.4,0.9-0.7,1.2
			c-0.4,0.4-0.9,0.7-1.5,1.1c1.9,0.3,3.6,0.2,5.2-0.5c2-0.8,4-1.8,5.9-2.8c0.7-0.4,1.3-1.1,1.7-1.9c1.1-2.1,2-4.3,3.1-6.4
			c0.5-1,1.3-1.9,2-2.7c0.2-0.2,0.8-0.2,1.2-0.3c0.1,0.4,0.2,0.9,0.1,1.2c-0.4,0.9-0.8,1.8-1.4,2.8c1.4-0.8,2.6-1.6,3.9-2.3
			c0.6-0.3,1.5-1,2.1-0.2c0.6,0.9-0.2,1.6-0.8,2.1c-1.3,1.2-2.7,2.3-4.1,3.4c0.1,0,0.1,0.1,0.2,0.1c0.5,0.2,1,0.4,1.5,0.7
			c-0.4,0.4-0.6,1-1.1,1.3c-1.2,0.6-2.4,1.1-3.6,1.5c-1.9,0.6-3.8,1.2-5.5,2.3c-3.2,2.1-6.8,3.3-10.6,3.4c-2.9,0-5.3,1.2-7.7,2.7
			c-2.8,1.7-5.5,3.4-8.3,5c-0.9,0.5-1,1-0.3,1.6c0.8,0.6,1.6,1.2,2.6,1.6c1.5,0.7,3.1,1,4.5,1.8c2.2,1.1,4.4,0.9,6.5,0
			c3-1.2,6.1-0.8,9.1-0.3c1,0.2,2.1,0.7,3,1.3c1.9,1.4,4,2,6.3,2c0.7,0,1.3,0,2,0c2,0.1,3.6-0.4,4.7-2.4c0.4-0.7,1.2-1.2,1.9-1.7
			c0.5-0.3,1.2-0.3,1.4,0.5c0.1,0.7,0.4,0.7,1,0.6c0.8-0.1,1.6-0.2,2.5-0.2c0.4,0,1.1,0.5,1.1,0.7c0,0.5-0.3,1-0.7,1.2
			c-0.6,0.4-1.4,0.5-2.1,0.8c-0.9,0.3-1.7,0.5-2.6,0.7c0,0.2,0,0.3-0.1,0.5c1.3,0.4,2.6,1.1,3.9,1.1c3.8-0.1,7.4,0.7,11,1.4
			c2.2,0.5,4.4,0.2,6.5-0.1c1.3-0.2,2.6-0.4,3.9-0.6c0.3,0,0.6-0.1,0.9,0c0.4,0.1,0.7,0.3,1,0.5c-0.2,0.3-0.4,0.7-0.6,1
			c-0.2,0.2-0.5,0.3-0.9,0.6c0.6,0.2,1.1,0.2,1.5,0.5c0.4,0.2,0.6,0.7,0.8,1c-0.4,0.2-0.8,0.7-1.1,0.7c-2.4-0.3-4.8-0.6-7.1-1.1
			c-3.3-0.8-6.6-1.9-9.9-2.7c-1.3-0.3-2.7-0.2-4-0.2c-2,0.1-3.9,0-5.6-1.2c-1.5-1-3-1.2-4.8-0.9c-2.6,0.4-5.3,0.9-7.9-0.2
			c-0.9-0.3-1.8-0.6-2.5-1.1c-3.7-2.4-7.7-2.7-11.8-1.5c-0.7,0.2-1.3,0.4-2.2,0.7c1.3,0.6,2.2,1,3.2,1.5c0.6,0.3,1.2,0.6,1.6,1.1
			c0.4,0.4,0.5,1,0.7,1.5c-0.6,0.1-1.1,0.3-1.7,0.3c-0.5,0-1-0.3-1.5-0.5c-0.4-0.1-0.7-0.3-1.2-0.5c0.3,0.7,0.6,1.3,0.6,1.8
			c0.1,0.5,0,1.2-0.4,1.5c-0.3,0.2-1.2,0.2-1.5-0.1c-1.1-1-2.1-2.2-3.1-3.3c-0.3-0.3-0.5-0.7-0.8-1.3c-0.3,0.8-0.5,1.5-0.8,2
			c-0.3,0.4-0.9,0.7-1.3,1c-0.3-0.5-0.9-1-0.9-1.4c0.1-1,0.3-2.1,0.8-3c0.5-1,0.2-1.5-0.6-1.9c-0.5-0.3-1-0.5-1.6-0.7
			c-2-0.5-3.8-1.4-5.3-2.7c-1.1-0.9-2.4-1.3-3.8-0.8c-2.2,0.8-4.5,1.7-6.6,2.7c-1.4,0.7-1.4,1.3-0.3,2.4c0.2,0.2,0.5,0.5,0.8,0.7
			c0.7,0.7,1.2,0.8,2.1,0c1.1-0.9,2.4-1.5,3.7-2.1c0.4-0.2,1.1,0.2,1.6,0.4c-0.2,0.5-0.4,1-0.7,1.5c-0.2,0.3-0.5,0.4-0.7,0.6
			c1.2,0,2.4-0.1,3.7,0c0.5,0,0.9,0.6,1.4,0.9c-0.4,0.4-0.7,0.9-1.1,1.1c-1.3,0.4-2.7,0.7-4.2,1c0.9,0.9,1.8,1.9,2.8,2.6
			c3.4,2.4,6.2,5.3,8.7,8.5c2.2,2.8,5,4,8.3,4.2c4.1,0.2,6.8,2.5,8.3,6.2c0.4,1,1.1,1.6,1.9,2.3c1,0.8,1.8,1.8,2.6,2.8
			c0.2,0.3,0.1,0.8,0.2,1.2c-0.4,0-0.8,0.2-1.1,0.1c-1.1-0.5-1.1,0.1-0.9,0.9c0.1,0.8,0.4,1.8-0.5,2.1c-1.1,0.3-1.2-0.9-1.4-1.6
			c-0.3-1.1-0.5-2.3-0.8-3.5c-0.1-0.4-0.1-0.7-0.2-1.2c-0.2,0.1-0.3,0.2-0.4,0.2c-0.3,0.2-0.6,0.3-1,0.5c-0.1-0.4-0.3-0.7-0.2-1.1
			c0.1-0.7,0.3-1.5,0.4-2.2c0-0.5,0.1-1.2-0.2-1.6c-1.1-1.9-2.5-3.3-4.9-3.6c-2.5-0.3-5-0.8-7.5-1.1c0,0.4,0.1,1,0.1,1.6
			c-0.1,1.2-1,1.8-2,1.1c-0.7-0.5-1.2-1.2-1.7-1.9c-0.3-0.4-0.3-0.8-1-0.6c-1.3,0.4-2.3-0.8-1.8-2c0.4-0.8,1.1-1.6,1.8-2.2
			c0.5-0.4,0.6-0.7,0.2-1.1c-1.3-1.2-2.5-2.5-3.9-3.7c-1.7-1.5-3.5-2.9-5.3-4.3c-1.2-1-2.5-1.8-3.7-2.7c-1.8-1.3-3.6-2.6-5.2-4.1
			c-2.2-2.1-4.9-2.9-7.7-3.3c-1.5-0.2-2.9-0.3-4.5-0.3c0.2,0.1,0.4,0.3,0.6,0.4c0.5,0.2,1,0.4,1.4,0.8c0.4,0.5,1.1,1.3,1,1.8
			c-0.3,0.9-1.2,0.4-1.8,0.2c-0.6-0.1-1.2-0.4-1.9-0.6c0.1,0.5,0.3,0.9,0.3,1.2c0,0.4,0,1-0.2,1.2c-0.2,0.2-0.9,0.1-1.2-0.1
			c-1.4-1-2.8-2-3.9-3.2c-2.9-3.3-6.4-5.8-10-8.2c-2-1.3-4.1-2.3-6.2-3.5c-1.2-0.7-2.5-0.8-3.8-0.5c-2.3,0.5-4.4-0.1-6.5-1
			c-1.2-0.6-2.4-1.2-3.7-1.8c-2.4-1-5.5-0.1-6.8,2.1c0.7,0.2,1.4,0.3,2.1,0.5c0.8,0.3,1.6,0.5,2.3,1c0.3,0.2,0.4,0.8,0.6,1.3
			c-0.4,0.2-0.8,0.4-1.2,0.5c-0.2,0.1-0.5-0.1-1.1-0.2c0.7,0.6,1.2,0.9,1.6,1.4c0.3,0.5,0.4,1.1,0.6,1.7c-0.5,0-1.2,0.2-1.6-0.1
			c-2.4-1.3-4.8-2.7-7.1-4.2c-2.2-1.5-4.4-3-7.1-3.5c-0.6-0.1-1.1-0.3-1.6-0.6c-3.2-2.3-7.1-2.8-10.7-4.1c-1.5-0.5-3.2-0.6-4.9-0.9
			c-0.7-0.1-1.5-0.3-2.1-0.6c-1.4-0.7-2.8-0.6-4.2,0.2c-0.9,0.5-1.8,1-2.6,1.7c-1.1,0.9-1.2,1.8-0.3,2.8c1.1,1.2,2.4,2.3,3.6,3.4
			c2.5,2.3,5.2,4.4,7.6,6.9c1.5,1.5,2.5,3.5,3.7,5.3c1.9,2.8,4,5.5,5.3,8.7c0.6,1.5,2,2.5,3.5,3.1c4.4,1.8,8.9,3.1,13.8,2.7
			c0.9-0.1,1.8-0.5,2.6-0.8c2.2-0.9,4.3-1.9,6.5-2.7c0.6-0.2,1.4-0.3,2.1-0.3c0.4,0,1.1,0.4,1.2,0.8c0.1,0.3-0.2,1-0.6,1.3
			c-0.5,0.5-1.2,0.7-2.1,1.2c1.1,0.1,1.9,0.2,2.8,0.3c0.4,0,0.9,0.1,1.3,0.3c0.3,0.2,0.8,0.6,0.8,0.8c0,0.3-0.4,0.8-0.7,0.9
			c-1.1,0.3-2.2,0.6-3.3,0.6c-1.2,0-2.4-0.2-3.9-0.3c0.9,1.5,1.8,2.5,3.3,3c-0.4,1-1.2,1.2-1.9,0.6c-1-0.8-1.9-1.6-2.7-2.6
			c-0.9-1.1-1.9-1.5-3.2-1.5c-0.9,0-1.8,0-2.8,0.2c-2.4,0.4-4.8,0.2-7.2-0.5c-2.3-0.7-4.5-1.5-6.7-2.2c-0.7-0.3-1.1-0.2-0.9,0.7
			c0.2,1.2,0,2.2-0.7,3.2c-0.3,0.4-0.4,1.2-0.3,1.7c0.4,1.9,1,3.8,1.6,5.7c0.2,0.6,0.7,1.2,1.1,1.8c0.9,1.4,1.9,2.7,2.7,4.2
			c0.2,0.3,0,0.9,0,1.4c-0.5-0.1-1.1-0.1-1.4-0.3c-0.7-0.5-1.2-1.2-1.9-2.1c-0.2,0.8-0.3,1.5-0.5,2.2c-0.1,0.4-0.2,0.8-0.4,1.1
			c-1.5,2.2-1.1,4,0.7,5.9c0.9,1,1.7,2.2,2.3,3.3c0.3,0.5,0.1,1.2,0.1,1.8c-0.6-0.1-1.2-0.1-1.8-0.3c-0.3-0.1-0.5-0.3-0.9-0.7
			c0.2,0.9,0.4,1.5,0.4,2.2c0,0.6-0.4,1.1-0.6,1.7c-0.5-0.3-1.2-0.4-1.5-0.8c-1.1-1.6-1.4-3.4-1.5-5.4c0-0.4,0-0.9,0-1.6
			c-0.4,0.5-0.6,0.8-0.8,1c-0.3,0.3-0.7,0.5-1.1,0.8c-0.2-0.5-0.5-0.9-0.5-1.4c0.2-1.8,0.9-3.4,2.1-4.7c2.7-3.1,3-8.1,1.3-11.6
			c0-0.1-0.1-0.1-0.5-0.2c-0.3,1.9-0.6,3.8-0.9,5.8c-1-1.5-1.3-3-1.5-4.7c-0.4,0.7-0.8,1.5-1.3,2.1c-0.2,0.3-0.8,0.4-1.2,0.6
			c-0.1-0.4-0.4-0.9-0.4-1.3c0.5-2.8,1.7-5.3,3.4-7.6c0.5-0.6,1.2-1.2,1.4-1.9c0.3-0.8,0.7-1.9,0.4-2.6c-1.6-4-2.7-8.2-5.2-11.9
			c-2.1-2.9-4.1-5.9-6.8-8.3c-2.1-1.9-4.6-3.2-7.3-4.1c-1.7-0.6-3.5-1.2-5.2-1.8c-0.3-0.1-0.8,0-1.1,0c0,0.3,0.1,0.7,0.2,1
			c0.3,1.6,1.2,2.8,2.5,3.9c1.2,1.1,2.3,2.4,3.3,3.7c0.3,0.4,0.4,1.4,0.2,1.7c-0.5,0.7-1.2,0.1-1.7-0.3c-0.6-0.5-1.2-1.1-1.9-1.8
			c0.2,1.3,0.5,2.5,0.7,3.8c0.1,0.8,0.1,1.7,0,2.5c-0.1,0.4-0.5,0.8-0.8,1.2c-0.3-0.3-0.9-0.6-1-0.9c-0.5-1.8-0.9-3.6-1.2-5.5
			c-0.2-1.2-0.2-2.5-0.3-3.8c-0.1-2.4-1.8-3.8-3.2-5.4c-2.1-2.4-4.9-4-7.6-5.6c-1.7-1-3.8-1.3-5.7-1.9c-1.8-0.6-3.7-1.1-5.5-1.9
			c-2-0.8-3.9-1.5-6.1-1.5c-0.4,0-0.7,0-1-0.1c-3.2-1-6.4-0.6-9.6-0.1c-2,0.3-3.9,0-5.8-0.9c-1.3-0.6-2.6-0.7-4-0.6
			c-2,0.1-4.1-0.1-6.1-0.2c-0.8,0-1.6-0.3-2.5-0.4V0h4.7c3.1,1.2,6.4,1.9,9.7,2c3.2,0.2,6.3,0.2,9.3,1.5c1.3,0.6,2.7,0.5,4.1-0.2
			c0.6-0.3,1.3-0.6,2-0.6C32,2.7,33.7,1.4,35.2,0c2.2,0,4.4,0,6.6,0c-1,0.3-2.1,0.6-3.1,0.9c-0.8,0.3-1.8,0.3-2.3,0.8
			c-1.8,1.6-3.8,2.8-6.1,3.5c-0.2,0.1-0.5,0.2-0.7,0.4c-2.2,1.6-4.7,2-7.4,1.6c-0.7-0.1-1.4,0-2,0c0.4,0.3,0.8,0.5,1.2,0.6
			c3.6,0.9,7.1,1.9,10.7,2.5c1.9,0.3,3.9,0.2,5.9-0.1c2.4-0.3,4.8-0.7,6.8-2.4c0.4-0.4,1.1-0.6,1.7-0.6C49.3,7.2,52,7,54.7,6.1
			c0.2-0.1,0.4-0.1,0.7,0c2.6,0.1,5.3,0.1,7.9,0.3c3.1,0.3,6-0.4,8.8-1.4c5.3-2,10.6-4.1,16.5-4c1.2,0,2.4-0.1,3.5-0.2
			c1.2-0.2,2.3-0.5,3.4-0.7C96.4,0,97.4,0,98.4,0L98.4,0z M69.1,16.4c0,0.1,0.1,0.3,0.1,0.4c0.3,0,0.7,0.1,1,0
			c3.1-1.2,6.3-2.3,9.4-3.6c0.6-0.2,1-0.9,1.6-1.4c-0.8,0-1.7-0.2-2.3,0.1c-2.3,0.9-4.5,1.9-6.7,2.9C71,15.3,70.1,15.9,69.1,16.4z
			 M132.7,26.7c-4.2-0.6-8.1,0.6-11.8,2.2C124.9,28.3,129,28.5,132.7,26.7z M127.9,21.2c-2.5,0.1-7.4,4.4-8,6.9
			C122.5,25.8,125.2,23.5,127.9,21.2z M92.9,2.4c0,0.2,0,0.3,0,0.5c1.8,0.8,3.8,0.9,5.7,0.8c0.3,0,0.5-0.4,0.8-0.5
			c-0.2-0.2-0.5-0.7-0.8-0.7C96.7,2.4,94.8,2.4,92.9,2.4z M209.5,17.2c-1.8,0.2-5.8,3.3-6.7,5.1C205.1,20.6,207.8,19.7,209.5,17.2z
			 M111.4,54.4c-1.8-0.2-5.7,1.3-6.7,2.5C107.3,56.5,109.4,55.7,111.4,54.4z M178.6,46.8c0.6,1.9,1.9,2.9,3,4.1
			c0.2,0.2,0.6,0.3,0.9,0.4c-0.1-0.4,0-0.8-0.2-1.1C181.6,48.8,180.5,47.6,178.6,46.8L178.6,46.8z M175.3,62.7
			c-0.8,1.8-0.7,2.9,0.3,3.8c0.3,0.3,0.8,0.3,1.3,0.5c0.1-0.4,0.3-0.9,0.2-1.2C176.6,64.8,176,63.9,175.3,62.7z M90.6,3.3
			c-0.2,1.5,0.7,3.7,1.8,4.3c0.2,0.1,0.6,0.2,0.6,0.1c0.1-0.2,0.3-0.6,0.2-0.8C92.7,5.5,91.8,4.4,90.6,3.3z M83.3,82.7l-0.4,0.2
			c-0.1,1.9,0.4,3.7,1.2,5.4c0.1,0.2,0.4,0.3,0.7,0.5c0.1-0.3,0.3-0.6,0.2-0.8C84.4,86.2,83.8,84.4,83.3,82.7L83.3,82.7z
			 M103.7,35.5c0.1-0.1,0.2-0.2,0.2-0.3c-1.9-1.7-4.1-3.1-6.5-3.9c-0.1,0.1-0.1,0.2-0.2,0.4C99.4,32.9,101.6,34.2,103.7,35.5
			L103.7,35.5z M58.1,37.3c0.4,2.3,0.1,4.8,1.4,6.9C59.8,41.7,59,39.5,58.1,37.3z"/>
		<path class="st3" d="M315.5,6.4c-0.1,0.4-0.4,0.8,0.4,0.5c1.2-0.5,2.4-0.9,3.6-1.3c0.3-0.1,0.7-0.2,1-0.2c0.3,0,0.7,0.1,0.8,0.3
			c0.1,0.2,0,0.7-0.2,0.8c-0.8,0.5-1.6,1.2-2.5,1.5c-1.4,0.5-2.9,0.7-4.4,1.4c0.7,0.3,1.3,0.7,2,0.9c2.2,0.8,4.5,1.4,6.7,2.2
			c1,0.4,1.8,1.2,2.7,1.8c2.1,1.2,4.2,2.8,6.5,3.6c8.2,3,16.5,2.9,24.8,0.5c1.9-0.6,3.9-0.8,5.9-1.3c1.3-0.3,2.6-0.7,3.8-1.4
			c3-1.6,5.8-3.4,8.7-5.1c0.7-0.4,1.1-0.7,0.9-1.6c-0.1-0.5,0-1.2,0.3-1.8c0.2-0.5,0.8-0.8,1.2-1.2c0.3,0.4,0.6,0.8,0.9,1.1
			c1.4-1,2.9-2.2,4.4-3.3c-1.5,1.3-3.1,2.5-3.9,4.4c1.8-0.8,3.3-2.1,4.4-3.7c0.5-0.8-0.1-0.6-0.5-0.7c0.4-0.1,0.8-0.2,1.1-0.3
			c-0.1,0.4-0.2,0.8-0.4,1.2c-0.4,0.7-1,1.2-1.6,2.1c1.1-0.2,1.9-0.4,2.8-0.5c0.3,0,0.7,0.2,1,0.3c-0.3,0.3-0.5,0.6-0.8,0.8
			c-0.7,0.3-1.4,0.6-2.1,1.1c3.1,0.4,6.3,0.6,9.4,1.1c2.8,0.4,5.6,0.5,8.4,0.2c0.4,0,0.7-0.2,1-0.5c1.2-0.9,2.4-1.9,3.7-2.8
			c0.2-0.1,0.5-0.1,0.7-0.2c0,0.3,0,0.6-0.2,0.8c-0.5,0.7-1.1,1.3-1.8,2.1c1.3,0,2.4,0,3.5,0c0.3,0,0.7,0.1,1,0.3
			c0.3,0.2,0.6,0.5,0.7,0.8c0,0.2-0.4,0.6-0.7,0.7c-0.7,0.2-1.4,0.3-2.1,0.2c-1.5-0.2-2.9-0.6-4.4-0.8c-1.1-0.1-2.2,0-3.3,0l0,0.4
			c0.7,0.5,1.5,1,2.2,1.6c0.3,0.3,0.4,0.8,0.5,1.2c-0.4,0.1-1,0.4-1.3,0.2c-1.5-0.7-2.9-1.6-4.3-2.4c-0.4-0.2-0.8-0.6-1.2-0.6
			c-4-0.3-8-0.6-12-0.8c-2.3-0.1-4.4,0.8-6.4,1.9c-1.9,1.1-3.7,2.2-5.5,3.3c-2,1.2-4.1,2.4-6.2,3.7c1.1,0.2,2.1,0.5,3.2,0.7
			c1.9,0.4,3.6,1.1,5.2,2.4c1.9,1.5,4.2,2,6.6,2.2c1.3,0.1,2.5,0.2,3.8,0.2c1.3,0,2.6,0,3.9-0.2c2.5-0.4,5-0.9,7.5-1.4
			c0.7-0.1,1.5-0.4,2.1-0.9c1.9-1.3,4-2.4,6.3-2.8c0.3-0.1,0.7-0.1,1-0.1c0.2,0,0.5,0.2,0.7,0.3c-0.1,0.2-0.2,0.5-0.3,0.7
			c-0.2,0.3-0.5,0.5-0.7,0.7c0.5,0.3,1,0.5,1.4,0.7c-0.5,0.3-0.9,0.6-1.5,0.8c-0.6,0.2-1.3,0.3-2,0.7c0.8,0.2,1.5,0.4,2.3,0.7
			c1.8,0.6,3.7,1.2,5.5,1.9c0.6,0.2,1.1,0.6,1.5,1c0.2,0.2,0.2,0.5,0.3,0.8c-0.3,0.1-0.6,0.3-0.8,0.3c-0.8-0.1-1.5-0.4-2.1-0.6
			c0.7,0.8,1.5,1.6,2.2,2.4c0.3,0.3,0.3,0.8,0.4,1.2c-0.5,0-1,0.1-1.3-0.2c-1-0.7-2-1.6-2.9-2.4c-0.8-0.8-1.7-1.6-2.4-2.5
			c-1.1-1.4-2.6-1.9-4.2-1.9c-1.7,0-3.5,0.1-5.2,0.4c-2.6,0.4-5.2,1.2-7.9,1.6c-1.5,0.3-3.1,0.2-4.7,0.3c-1.1,0-2.1,0-3.2,0
			c0,0.1,0,0.2-0.1,0.3c0.6,0.4,1.3,0.7,1.9,1.1c0.3,0.2,0.4,0.5,0.6,0.8c-0.3,0.1-0.7,0.5-1,0.4c-1.1-0.3-2.1-0.7-3.2-1.1
			c-0.2-0.1-0.4-0.2-0.7-0.1c0.5,0.6,1,1.2,1.4,1.8c0.2,0.2,0.2,0.7,0.1,0.9c0,0.1-0.6,0.2-0.8,0.1c-0.6-0.3-1.3-0.5-1.8-1
			c-1.8-1.5-3.2-3.3-4-5.4c-0.5-1.1-1.1-1.8-2.2-2c-4.4-1.1-8.9-2.1-13.5-0.8c-5.9,1.6-11.8,1.6-17.7,0.9c-0.1,0-0.1,0.1-0.3,0.1
			c1.5,1.6,3.1,3.3,4.6,4.9c0.2,0.2,0.7,0.3,1.1,0.5c2,0.6,4,1.1,5.9,1.8c0.8,0.3,1.5,0.7,2.2,1.2c0.3,0.2,0.5,0.7,0.4,1
			c-0.1,0.2-0.6,0.5-0.9,0.5c-0.8,0-1.5-0.2-2.3-0.4c-0.6-0.1-1.1-0.4-1.8-0.4c0.5,0.5,1,1,1.4,1.5c0.5,0.7,1.4,1.6,0.5,2.4
			c-0.8,0.8-1.7,0-2.3-0.6c-1.1-1.2-2.1-2.6-3.1-3.9c-0.4,0.5-0.9,1.2-1.5,1.6c-0.5,0.3-1.2,0.2-1.8,0.3c0-0.6-0.2-1.2,0-1.7
			c0.2-0.5,0.6-1.1,1-1.5c0.4-0.4,0.4-0.7,0-1.1c-1.5-1.5-3-3-4.6-4.5c-0.4-0.4-1-0.7-1.6-0.9c-2.1-0.9-4.2-1.5-6.2-2.5
			c-1.4-0.7-2.7-1.6-3.7-2.8c-1.8-2.1-4.1-3.2-6.7-3.9c-1.6-0.4-3.2-0.7-4.7-1.1c-2.8-0.8-5.5-0.4-8.3,0c-1.7,0.2-3.6,0-5.3-0.3
			c-2.7-0.5-5.3-1.5-8-1.8c-3-0.4-6.1-0.3-9.2-0.5c-2.7-0.2-5.3,0.4-7.9,1.3c0.5,0.1,0.9,0.4,1.4,0.4c2.1,0.4,4.3,0.9,6.5,1.2
			c3.8,0.6,7.4,1.6,10.7,3.6c1.8,1.1,3.7,1,5.5-0.3c0.6-0.4,1.3-0.8,2-0.9c0.4-0.1,0.9,0.2,1.4,0.3c-0.2,0.4-0.4,0.9-0.7,1.1
			c-0.5,0.4-1.2,0.7-2.1,1.1c0.9,0.1,1.7,0.2,2.3,0.4c0.4,0.1,0.7,0.6,1,0.9c-0.4,0.3-0.8,0.8-1.1,0.7c-1.2-0.1-2.3-0.4-3.5-0.6
			s-2.3-0.3-3.4-0.6c-1.5-0.5-3.2-0.8-4.5-1.7c-1.8-1.2-3.7-2-5.9-1.9c-2.6,0-5.2,0.1-7.7,0.4c-3.3,0.4-6.1-0.2-8.7-2.4
			c-1.6-1.4-3.6-2.6-5.7-3.2C260.4,8,258,8.2,255.7,8c-1-0.1-2.2-0.1-3-0.6c-1.8-0.9-3.6-1.3-5.6-1.1c-0.8,0.1-1.7,0.1-2.5,0.2
			c-2,0.3-2.5,1.3-1.6,3c1.4,2.5,3.3,4.6,5.6,6.2c2.8,1.9,5.8,3.3,9.2,3.5c1.7,0.1,3.5,0.6,5.2,0.8c0.9,0.1,1.9,0,3.1,0
			c-0.4-0.4-0.7-0.7-0.9-1c-0.1-0.2-0.3-0.6-0.2-0.8c0.1-0.2,0.5-0.4,0.8-0.5c0.3,0,0.6,0,0.9,0.2c0.8,0.4,1.4,0.7,2-0.4
			c0.3-0.6,1-0.3,1.4,0.2c0.3,0.4,0.4,0.9,0.6,1.3c1-0.4,1.9-0.8,2.9-1.2c0.2-0.1,0.3-0.2,0.5-0.1c0.7,0.1,1.9,0,2.1,0.4
			c0.5,0.8-0.5,1.2-1.1,1.6c-0.1,0.1-0.3,0.2-0.5,0.4c0.6,0.2,1.2,0.3,1.6,0.6c0.5,0.3,0.8,0.8,1.2,1.3c-0.5,0.3-1,0.6-1.5,0.8
			c-0.5,0.1-1,0-1.8,0c1.4,1.2,2.7,2.1,4.3,2.6c2.4,0.8,4.8,0.9,7.3,0.7c2.4-0.2,4.7-0.5,7.1-0.7c3.9-0.4,7.4,0.8,10.7,2.5
			c0.7,0.4,1.4,0.7,2.3,1.2c-0.4-1.1-0.8-2-1.1-3c-0.1-0.4,0.1-0.8,0.2-1.2c0.4,0.2,0.9,0.3,1,0.6c0.8,1.4,1.6,2.7,2.2,4.2
			c0.4,0.9,0.9,1.2,1.8,1.2c1.5,0,3,0.2,4.5,0.3c0.5,0,1.1,0.2,1.5,0.4c0.4,0.2,0.7,0.6,1,0.9c-0.4,0.3-0.8,0.7-1.2,0.7
			c-0.9,0.1-1.7,0-2.7,0c3,1.4,5.2,3.7,7,6.5l0.3-0.1c0-0.7-0.1-1.4,0-2.1c0.1-0.4,0.5-1,0.9-1.1c0.3-0.1,0.9,0.3,1.1,0.7
			c0.4,0.8,0.7,1.7,1,2.6c0.5-0.3,1-0.6,1.6-0.8c0.6-0.2,1.2-0.5,1.9-0.6c0.4,0,0.9,0.3,1.4,0.5c-0.2,0.4-0.3,1-0.6,1.3
			c-0.5,0.4-1.1,0.6-1.7,0.9c-0.4,0.2-0.8,0.3-1.2,0.5c1.3,0.6,2.5,1.1,3.7,1.8c0.4,0.2,0.6,0.8,0.8,1.2c-0.4,0.1-0.9,0.4-1.3,0.4
			c-1.1-0.1-2.2-0.4-3.5-0.7c0.4,0.5,0.8,0.8,1,1.3c0.1,0.3,0.2,0.7,0.1,1c-0.1,0.2-0.6,0.4-0.9,0.3c-0.8-0.3-1.7-0.6-2.3-1.2
			c-1.4-1.3-2.9-2.7-3.8-4.3c-2-3.4-4.8-5.7-8.2-7.4c-2.2-1.1-4.3-2.6-6.5-3.7c-1.8-0.9-3.6-1.7-5.5-2.5c-2.2-0.8-4.4-0.9-6.7-0.6
			c-3,0.4-6.1,0.5-9.2,0.7c-0.9,0-1.9-0.1-2.9-0.2c0,0.2,0,0.3,0,0.4c2.8,4.2,5.4,8.5,8.7,12.3c2.2,2.5,5,4.1,8,5.6
			c-0.5-0.7-1.1-1.4-1.5-2.2c-0.3-0.7-0.4-1.6-0.5-2.4c1.1,0,1.4,1,1.8,1.6c0.5,0.7,0.8,1.5,1.3,2.4c0.4-0.9,0.6-1.7,0.9-2.4
			c0.2-0.5,0.5-1.1,0.9-1.5c0.4-0.4,1.1-0.6,1.6-0.9c0.2,0.6,0.7,1.2,0.5,1.7c-0.4,1.5-0.9,2.9-1.5,4.4c0.6,0.1,1.5,0.2,2.2,0.4
			c0.9,0.2,1.8,0.5,2.6,0.9c0.4,0.2,0.6,0.7,1,1.1c-0.5,0.3-0.9,0.8-1.4,0.8c-0.9,0-1.8-0.1-2.7-0.3c-0.3,0-0.6-0.2-1.3-0.4
			c1.3,2.3,1.8,4.5,4,6c2,1.3,3.9,3,5.7,4.7c0.7,0.6,1.7,1.5,0.9,2.4c-0.8,0.9-1.8,0-2.5-0.5c-0.6-0.4-1.1-0.9-1.9-1.5
			c0.3,1.2,0.7,2.2,0.8,3.2c0.1,0.5-0.3,1.1-0.4,1.6c-0.5-0.3-1.1-0.4-1.5-0.8c-0.5-0.5-0.9-1.2-1.1-1.9c-0.5-1.2-0.9-2.4-1.1-3.6
			c-0.6-3.2-1.6-6.2-3.3-8.9c-0.5-0.8-1.3-1.6-2.1-2.2c-1-0.7-2.2-1.2-3.4-1.8c-6-3-10.4-7.7-14.2-13c-2.1-2.9-4.1-5.8-7-7.9
			c-0.3-0.2-0.6-0.5-0.9-0.8c-1.5-2.2-3.7-2.5-6.1-2.5c-3.1,0-6.2,0.5-9.2,1c-3.1,0.6-6.2,0-8.9-2c-1.2-0.8-2.2-1.9-3.4-2.8
			c-1.6-1.2-3.2-2.4-4.9-3.4c-3-1.9-6.2-3.4-9.2-5.4c-5.8-4-12.2-5.7-19-6.1c-6-0.4-12-0.3-18-0.5c-5.7-0.2-11.5-0.6-17.2-0.9
			c-3.8-0.2-7.6-0.1-11.4-0.5c-2.5-0.2-4.9-0.9-7.4-1.3c34.8,0,69.6,0,104.4,0c2.5,1,5.1,1.9,7.6,2.9c2.6,1.1,5.3,1.7,8.2,1.6
			c3.9-0.1,7.9,0.1,11.8,0.5c2.3,0.2,4.6,0.9,6.7,1.7c3.6,1.4,7.3,1.6,11.1,1.2c1.2-0.1,2.4-0.1,3.5,0c0.8,0.1,1.2-0.2,1.7-0.8
			c0.9-1.1,1.8-2.1,2.8-3.1c0.5-0.4,1.1-0.8,1.7-1c0.3-0.1,0.7,0,1.1,0.1c-0.1,0.3-0.1,0.7-0.2,1c-0.1,0.2-0.4,0.4-0.5,0.6
			c0.2-0.4,0.3-0.9,0.5-1.3c-1.8,0.3-4.5,2.9-5,4.9C313.9,7.5,314.8,7,315.5,6.4L315.5,6.4z M304.4,56c-0.1,0.1-0.2,0.2-0.3,0.3
			c1.4,2.2,3.1,4.2,5.3,5.6c0.3,0.2,0.7,0.2,1.1,0.2c-0.1-0.4-0.1-0.9-0.3-1.2C308.3,59.3,306.4,57.7,304.4,56L304.4,56z
			 M306.6,64.5c0.1-2.7-1.2-4.8-2.9-6.8C304.2,60.1,304.6,62.6,306.6,64.5z M298,46.6c0.2,0,0.3,0.1,0.4,0.1
			c1.2-0.4,2.8-3.7,2.4-4.8c0-0.1-0.6-0.2-0.7-0.1C298.9,43.1,298.2,44.8,298,46.6z M299.4,47.5c0,0.2-0.1,0.3-0.2,0.5
			c1.3,1.6,3.1,2,5.1,1.8c0.2,0,0.4-0.2,0.6-0.3c-0.2-0.2-0.4-0.5-0.6-0.6C302.8,48.3,301.1,47.9,299.4,47.5L299.4,47.5z
			 M344.5,27.4c1.1,1.5,5.3,3,7,2.6C349.3,28.5,346.9,28,344.5,27.4z M344.7,28.9c-0.1,0.1-0.2,0.2-0.4,0.4c0.7,1.5,1.5,2.9,2.9,3.9
			c0.3,0.2,0.7,0.2,1.1,0.2c0-0.3,0-0.8-0.2-1C347.1,31.1,345.9,30,344.7,28.9z M270.4,20.1c1.8,0.3,3.5,0.1,4.9-1
			c0.2-0.2,0.3-0.5,0.5-0.7c-0.3-0.1-0.5-0.3-0.8-0.2C273.3,18.3,271.9,19.2,270.4,20.1L270.4,20.1z M378,28.8
			c-1.2-2-2.9-3.4-4.8-4.8C374.3,26,375.6,28,378,28.8z"/>
		<path class="st3" d="M324.9,0c4.8,2.6,9,6.3,14.5,7.4c0.7,0.1,1.5,0.4,2.2,0.2c2.8-0.6,5.5,0.3,8.1,0.9c0.8,0.2,1.6,0.2,2.4,0.3
			c2.2,0.3,4.4,0.5,6.6,0.8c0.5,0.1,0.9,0.3,1.3,0.5c0.3,0.2,0.5,0.6,0.8,0.9c-0.4,0.2-0.8,0.7-1.1,0.7c-1.2,0-2.4-0.1-3.6-0.3
			c-0.4,0-0.8-0.2-1.6-0.4c0.6,0.8,1.1,1.2,1.4,1.8c0.2,0.4,0.2,1,0.3,1.6c-0.5,0-1.2,0.2-1.6-0.1c-1.6-1.2-3.1-2.5-4.5-4
			c-0.7-0.7-1.4-1.3-2.3-1.4c-1.9-0.2-3.8-0.3-5.6-0.1c-2,0.2-3.9,0-5.7-0.7c-2.3-1-4.6-2.2-6.8-3.4c-2-1.1-4-2.3-6-3.5
			c-0.8-0.4-1.6-0.9-2.4-1.3C322.6,0,323.7,0,324.9,0L324.9,0z M359.8,11.1c-2.2-1.2-4.5-1.6-7-1.5C355,10.8,357.3,11.6,359.8,11.1z
			 M355.7,14c-1-2-2.6-3.5-4.9-3.9C352.2,11.7,353.5,13.4,355.7,14z"/>
		<path class="st3" d="M354.6,0c1.3,0.9,2.5,1.8,3.9,2.5c1.7,0.9,3.5,1.6,5.2,2.5c0.6,0.3,1.1,0.9,1.5,1.4c0.2,0.2,0.2,0.6,0.3,0.9
			c-0.4,0.1-0.8,0.2-1.1,0.1c-1-0.4-2-1-2.9-1.5c-0.4-0.2-0.7-0.4-1.2-0.5c0.4,0.6,0.8,1.2,1.2,1.8c0.2,0.4,0.2,0.9,0.2,1.3
			c-0.5-0.1-1.1,0.1-1.4-0.2c-1.1-1.2-2.4-2.3-3-3.7c-0.7-1.5-1.7-2.5-3-3.4c-0.6-0.4-1.1-0.9-1.6-1.3C353.3,0,354,0,354.6,0
			L354.6,0z"/>
		<path class="st3" d="M129.4,64.2c1.1,0.3,2.1,0.4,3.1,0.8c0.4,0.2,0.7,0.8,1.1,1.2c-0.5,0.2-0.9,0.6-1.4,0.7
			c-2.1,0.2-4.1,0-6.1-0.9c0.7,0.8,1.4,1.5,2,2.3c1.3,1.6,2.7,2.3,4.9,2.3c2.6,0,5.2,0.9,7.3,2.6c0.3,0.2,0.4,0.7,0.6,1
			c-0.4,0.2-0.8,0.4-1.2,0.4c-0.6,0-1.2-0.2-2-0.3c0.4,0.6,0.7,1,0.9,1.5c0.2,0.4,0.4,1,0.2,1.2c-0.3,0.3-0.9,0.5-1.3,0.4
			c-0.9-0.3-1.7-0.7-2.5-1.1c-0.8-0.5-1.6-1.1-2.5-1.8c-0.1,0.5-0.1,0.9-0.2,1.3c-0.2,1-1.1,1.3-1.7,0.5c-0.6-0.8-1.2-1.8-1.3-2.8
			c-0.2-2-0.9-3.6-2.5-4.8c0,0-0.1-0.1-0.1-0.1c-2-2.9-4.8-3.5-8.1-3.1c-1.5,0.2-2.8-0.2-4.1-0.9c-1.2-0.6-2.6-0.9-4-1.3
			c0.3-0.8,1-1.2,1.9-0.8c1,0.4,1.9,1,3,1.3c1,0.3,2.1,0.5,3.1,0.6c3.3,0.4,6.2-1.2,9.3-2.1c0.8-0.2,1.5-0.3,2.3-0.4
			c0.3,0,0.9,0.3,0.9,0.5c0,0.3-0.2,0.8-0.5,1.1C130.3,63.7,129.9,63.9,129.4,64.2L129.4,64.2z M137.3,76.2c0.1-0.2,0.2-0.3,0.3-0.4
			c-1.8-1.9-3.7-3.6-6.3-4.4C133,73.4,134.9,75.2,137.3,76.2z"/>
	</g>
</g>
</svg>
