<?xml version="1.0" encoding="UTF-8"?>
<svg id="Layer_2" data-name="Layer 2" xmlns="http://www.w3.org/2000/svg" viewBox="0 0 448.24 175.75">
  <defs>
    <style>
      .cls-1 {
        fill: #826565;
      }

      .cls-2 {
        fill: #333;
      }
    </style>
  </defs>
  <g id="Layer_2_Image" data-name="Layer 2 Image">
    <g>
      <path class="cls-2" d="m105.83,44.72c-.5,1.16-1.05,2.26-1.46,3.41-1.43,3.99-1.56,8.07-1.06,12.27.73,6.05,1.3,12.13,1.71,18.22.25,3.66,0,7.34.1,11.01.16,5.37.81,10.62,4.39,15.02,1.58,1.95,3.4,3.44,5.95,3.86.25.04,1.58.2,1.62.28-.45.85-1.32,1.11-2.42,1.14,3.58-.23,2.77.33,8.04-1.47-.37,1.6-.93,2.15-2.96,3.57,2.04-.28,3.76-.92,5.21-2.04,1.41-1.09,2.66-2.4,4.23-3.59-.49,1.65-.99,3.3-1.54,5.16,1.18-.62,2.33-1.15,3.41-1.8,5.82-3.53,10.8-8.09,15.56-12.89,3.04-3.07,6.11-6.14,8.91-9.43,2.71-2.88,4.85-7.94,5.1-11.58.33,1.51.65,3.03.98,4.55,2.06-2.91,4.21-5.73,6.12-8.7,1.86-2.9,3.11-6.07,2.99-9.64.12-.02,1.08,2.33,1.28,3.55.2,1.26.2,2.55.29,3.83.1.03,2.29-5.7,2.33-5.72v4.18c.11.06,1.2-.57,1.63-.96,6.95-6.22,14.16-12.12,22.26-16.79,9.9-5.71,20.32-10.28,31.32-13.41,3.02-.86,6.23-1,9.33-1.61,3.6-.7,7.17-1.54,10.75-2.33.37-.08.74-.21,1.11-.32.07.1.15.19.22.29-1.13.89-2.27,1.77-3.4,2.66.02.06.04.13.06.19,1.61-.34,3.22-.67,4.83-1.01l.17.35c-.94.57-1.88,1.14-2.99,1.81,4.16.92,8.13,1.36,12.16.05-1.61,2.22-4.19,2.78-6.51,4.01.3.19.52.39.78.49,3.56,1.37,6.7,3.45,9.57,5.9,2.89,2.48,6.15,4.25,9.66,5.7-2.47.36-4.76-.5-7.27-1.19.13.32.16.52.27.66,1.71,2.27,2.51,4.89,3.18,7.61,2.2,8.91,4.42,17.81,6.76,26.68,1.04,3.95,2.69,7.74,5,11.09,5.42,7.86,12.65,12.97,22.42,14.15,4.97.6,9.64-.15,14.27-1.82,14.04-5.08,26.63-12.53,37.25-23.08,3.96-3.93,7.64-8.15,11.55-12.13,4.22-4.29,8.57-8.44,12.86-12.67,5.06-4.99,10.04-10.06,14.09-15.94,1.3-1.88,2.51-3.84,3.62-5.84,1.13-2.03,1.34-2.42,1.46-5.45.47.89.66,1.66.77,2.44.12.86.09,1.74-.02,2.6-.17,1.28-.27,2.27-.75,3.83,1.19-1.4,2.21-2.59,3.22-3.77.12.08-1.61,3.64-2.75,5.62.66-.31,1.07-.49,1.48-.69,3.44-1.69,7.02-3.03,10.84-3.42,2.31-.24,4.67-.12,6.99.07,2.01.16,3.87.94,5.36,2.38,2.22,2.16,4.44,4.33,6.48,6.67-2.21-.67-4.43-1.33-6.64-2,7.95,3.91,9.18,9.2,12.29,14.72,1.4,2.49,1.72,4.21,3.15,6.68,2.83,5.34,5.99,7.68,6.81,7.91-1.04.19-2.33-.22-4.12-1.42-1.2-.8-3.65-2.5-3.74-2.44,1.19,2.18,3.43,6.66,3.26,6.8l-4.64-3.47c-.28,1.66-.52,3.34-.85,4.99-1.18,5.78-2.82,11.38-5.9,16.52-3.8,6.34-7.44,12.78-11.11,19.2-2.72,4.75-4.37,9.79-3.81,15.37.07.71.53,3.92.4,3.95-1.07-2.24-1.61-5.11-1.89-7.18-.92-7.79.81-14.48,4.81-20.93,1.45-2.34,2.74-4.79,3.88-7.29,1.03-2.25,1.35-4.71.59-7.14-.88-2.83-4.38-3.67-6.44-1.55-2.48,2.55-3.92,5.56-3.42,9.24.13.98.65,1.75,1.58,2.1-.35-1-.92-1.99-.99-3.01-.2-2.83,1.05-5.19,2.84-7.28,1.21-1.42,2.21-1.69,3.64-1.14,1.57.6,2.18,1.57,2.28,3.39.14,2.54-.58,4.86-1.75,7.05-1.06,1.97-2.18,3.91-3.3,5.85-2.17,3.75-3.97,7.67-4.52,12-.74,5.79.02,11.37,2.88,16.56.8,1.46,1.63,2.9,2.37,4.41-1.7-1.39-3.23-2.91-4.17-4.95-2.07-4.47-3.24-9.2-3.91-14.06-.76-5.58-.99-11.2-.56-16.92-1.24,1.14-2.4,2.21-3.57,3.28l-.13-.09c1.15-2.73,3.38-8.25,3.28-8.32-1.89,1.86-5.94,5.37-6.08,5.27.45-.82.87-1.68,1.37-2.47,2.28-3.63,3.95-7.49,4.78-11.71.45-2.27.31-4.43-.55-6.6-3.26-8.27-9.22-12.88-18.11-13.84-4.21-.46-7.96.83-11.68,2.39-5.19,2.17-9.71,5.46-14.26,8.73-7.04,5.05-13.13,11.14-19.4,17.05-7.12,6.72-14.78,12.73-23.56,17.13-5.41,2.71-11.2,4.37-17.21,5.19-5.01.68-10.02.64-14.99-.36-6.28-1.26-11.07-4.97-15.29-9.52-5.14-5.55-8.74-12.02-11.23-19.13-.38-1.1-.88-1.97-2.46-1.9-2.68,5.43-1.45,10.37,1.78,15.1-2.4-.78-6.2-4.02-4.83-4.43.56-.17.87.8,1.23,1.25.16-1.02-.91-2.29-1.4-1.78-1.68,1.73,3.27,3.35,2.88,6.07-3.58-2.82-6.88-.96-10.02.59-2.46,1.21-4.76,2.73-6.85,4.51-1.71,1.45-2.61,2.21-3.85,4.05-.48.71-.73,2.95-.85,4-1.09-.68-1.24-1.73-1.35-3.14-1.16,1.43-1.76,2.91-1.56,4.71-.98-1.11-1.1-2.05-.83-4.75-1.1.57-2.05,1.72-2.94,3.15-.58-2.43.91-4.19,2.28-6.23-1.9.56-2.64,2.13-3.81,3.27-.14-2.16,1.5-4.66,3.84-5.83.77-.38,1.59-.67,2.41-.94,2.76-.89,5.09-2.45,7.21-4.43,1.56-1.46,3.19-2.85,4.87-4.18.97-.76,1.74-1.49,2.82-2.46-.52-1.46-.99-2.88-1.54-4.27-.67-1.68-1.37-3.35-2.13-4.99-1.2-2.57-.82-5.12-.05-7.7.59-1.97,1.1-3.97,1.53-6.08-1.89.7-3.87,1.47-4.7,3.39-1.31,3.01-1.75,6.24-.93,9.49.27,1.08.9,2.08,1.4,3.18-1.61-.59-2.43-1.87-3.09-3.35.02,1.22.57,2.19,1.47,2.94.85.71,1.76,1.36,2.86,2.2-1.38-.29-2.48-.56-3.6-.75-3.39-.59-6.53.45-9.55,1.72-1.67.7-2.63,1.37-4.02,2.55-.62.53-1.33,2.13-1.75,3.15-.71-.7-.93-1.54-.57-2.68-1.57.95-2.34,2.13-2.16,4.03-1.39-1.33-.94-2.63-.54-3.97-1.47,1.18-2.53,2.57-2.64,4.67q-.69-.88-.17-5.4c-1.08.88-1.43.66-2.95,3.22-.27-.63-.21-1.58.06-2.05,1.02-4.04,4.34-4.73,7.68-5.42,3.79-.77,7.54-1.65,10.97-3.58v-.03c-1-2.28-2.05-4.49-2.96-6.75-.72-1.79-1.32-3.64-1.89-5.49-.15-.5-.12-1.11.02-1.63,1.07-4.1,2.51-8.06,4.36-11.88.84-1.74,1.5-3.57,2.35-5.62,1.83.2,3.65,1.05,5.49,2.05.05-.09-2.2-1.79-3.48-2.25-5.69-2.05-11.45-1.98-17.4-1.01-10.11,1.66-18.21,7.12-26.15,12.96-4.83,3.55-9.24,7.61-13.33,11.98-2.29,2.45-4.36,5.08-6.29,7.82-4.85,6.89-9.54,13.91-15.35,20.06-6.83,7.23-14.18,13.86-22.75,19.14-2.39,1.47-4.93,2.68-7.48,3.84-.34.15-.69.34-1.2.59,1.91,1.04,4.07,2.14,5.27,3.31-2.13-1.49-9.17-1.16-9.72-1.98-.28-.42-.29-.83.17-1.42-.42.35-1.33.59-1.2,1.56.16,1.13,6.58.9,7.68,1.09.85.15,2.2.58,2.99,1.03-2.46-.49-5.07.96-7.12,1.86,1.63.64,3.17,1.25,4.7,1.85-.03.16-10.49,1.61-14.34,4.55-5.29,4.06-10.53,8.18-15.82,12.24-1.15.88-1.95,1.96-2.4,3.3-.66,1.96-1.25,3.95-1.87,5.93-.44,1.43.14,2.6,1.12,3.85-1.5-.17-2.17-1.08-2.69-2.18-1.41,1.6-1.43,2.73-.15,4.85-1.53.07-2.32-1.18-2.84-4.76-1.19,2.06-2.16,3.83-1.52,6.25-2.14-1.74-1.26-3.8-.88-6.03-1.3,1.46-1.75,2.91-1.64,4.56-.11.03-.22.07-.33.1-.22-.61-.57-1.22-.63-1.85-.15-1.66.5-3.13,1.39-4.5,1.72-2.64,3.36-5.34,5.18-7.91,2.19-3.09,4.46-6.13,6.79-9.11,1.74-2.23,3.57-4.4,5.51-6.46.43-.45.64-.74,1.25-1.47-.83-.14-1.47-.42-2.05-.32-5.46.91-7.45.13-13.16-2.07.47.31.92.64,1.41.91.56.32,1.14.62,1.73.89.54.26,1.1.47,1.82.77-.42.24-.71.42-1.02.59,1.78,2.66,1.94,4.25.61,5.92.3-2.46-.93-5.4-2.58-6.03-.31-.12-1.05.42-1.03.56.23-.07.74-.25.99-.2,1.28.26,2.63,3.46,1.98,5.43-.83-.64-1.69-1.3-2.6-2,0,1.35-.35,3.48-.38,3.42-1.35-2.69-3.39-3.74-6.83-2.93-4.46,1.05-8.86,2.35-13.23,3.71-.77.24-1.52,1.16-1.9,1.95-1,2.05-2.14,3.95-3.94,5.41-.32.26-1.26.78-1.18,1.47.15,1.29,1.43,1.12,2.04.93-1.23,1.72-1.87,1.68-3.92-.31-.28,2.17.66,3.75,2.4,5.03-2.99.06-4.26-1.2-4.87-4.68-1.26,1.14-1.56,2.07-1.87,5.92-1.31-1.62-1.24-3.47-1.2-5.31l-.35-.1-2.55,4.03c-.08,0-.15.01-.23.02.17-1,.19-2.04.53-2.98.72-2.01,1.94-3.68,3.72-4.88,3.8-2.56,7.26-5.58,10.38-8.95,2.33-2.52,5.2-4.55,7.94-6.66,1.84-1.42,3.87-2.61,5.9-3.96-2.56-4.44-4.23-9.17-4.95-14.34,1.16,2.28,3.62,6.51,3.74,6.45-.18-.38-.35-.77-.54-1.15-2.48-4.86-3.76-9.99-3.64-15.48.13-6.05.04-12.1.19-18.15.11-4.28.57-8.54.7-12.82.09-2.93-.55-5.75-2.02-8.35-2.08-3.67-5.24-5.53-9.43-5.67-6.25-.21-11.56,2.36-16.38,5.95-2.59,1.93-4.79,4.37-7.19,6.56-1.15,1.05-2.3,2.11-3.52,3.07-2.38,1.89-3.05,1.99-6.3,1.14.02-.39-.04-.85.08-1.26.22-.74.54-1.46.85-2.17,1.18-2.76,2.32-5.51,2.88-8.49.45-2.41,1.48-4.67,2.88-6.68,2.27-3.27,4.51-6.56,6.86-9.77,4.25-5.81,8.22-11.78,11.2-18.37,2.17-4.8,3.12-9.87,3.17-15.12,0-.12.03-.24.05-.36.11-.02.23-.03.34-.05.29,2.15.75,4.3.83,6.46.21,5.42-1.31,10.5-3.49,15.41-1.59,3.59-3.18,7.18-4.76,10.76.05-.04.23-.13.36-.24,2.85-2.56,8.07-6.07,11.22-8.26,5.62-3.91,10.57-8.5,14.71-13.97,2.3-3.04,4.08-6.42,5.15-10.12.12-.41.27-.81.62-1.21,0,.91.13,1.85-.02,2.74-1.17,7.18-4.93,13.04-9.57,18.41-1.87,2.16-3.95,4.13-5.93,6.2-.31.32-.6.66-.81,1.08,5.16-2.34,9.34-5.84,12.77-10.37-.37.76-.71,1.53-1.11,2.27-.43.8-.91,1.57-1.39,2.34-.48.77-1,1.51-1.5,2.27.06.1.11.2.17.3,2.13-1.08,4.26-2.16,6.39-3.24l.17.14c-1.08,1.23-2.16,2.47-3.41,3.89,1.87-.32,3.57-.58,5.26-.92,1.7-.33,3.39-.68,5.06-1.14,1.71-.47,3.43-.96,5.04-1.68,1.55-.7,2.96-1.7,4.43-2.57-.77.87-1.55,1.75-2.33,2.63-.29.25-.6.48-.85.77-1.3,1.44-2.56,2.93-3.9,4.34-.49.51-1.88,1.65-2.09.87-.34-1.22,1.45-2.08,2.18-3.09-1.48.45-3.55,2.7-2.48,3.78,1.16,1.17,7.36-6.72,7.59-6.74Zm310.51,1.18c-1.48,2.59-3.77,4-6.28,5.34,6.11-2.36,11.43-1.21,16.25,3.19-3-.46-5.86-1.35-9.07-.36,1.91.16,3.53.3,5.26.44-1.49.76-2.79,1.42-4.1,2.09,2.58.72,4.92,1.4,7.27,2.01,1.11.29,2.26.43,3.39.64.02-.11-5.27-2.04-7.94-2.9,0-.08,5.94-.73,8.91-.97-.3-.19-.69-.45-1.08-.69-1.43-.9-2.88-1.75-4.28-2.7-2.99-2.01-6.1-3.47-10.12-2.49,1.53-1.63,3.05-2.98,3.13-5.2-3.42,1.4-9.78,4.27-9.75,4.37,2.75-.91,5.51-1.82,8.41-2.77ZM113.35,115.87c3.75,1.41,7.01.4,10.4-1.45-1.18,2.17-3.34,3.1-5.29,3.67-.34.08-.56-.1-.43-.26.11-.14.38-.43,1.04-.51-.87.02-2.22.17-1.63,1.12s3.51-.81,5.63-1.72c-.56.89-.97,1.53-1.51,2.39,2.38-.96,4.46-1.81,6.75-2.73-.46.56-.77.97-1.1,1.36-.33.38-.67.75-1.01,1.12,2.22-1.02,3.17-2.89,3.68-5.07-1.67,1.51-3.51,2.55-5.81,2.84.44-1.37.84-2.62,1.33-4.15-2.84,1.37-5.25,3.12-8.28,3.22.36-.56.68-1.05,1.14-1.76h-5.62c-.01.1,2.47.71,3.73.91.01.05-1.92.71-3.02,1.02Zm-51.86-53.02c.1.07-1.94,2.89-3.02,4.19,3.44-1.3,7.38-1.4,10.48-3.85-2.4,3.1-5.8,4.85-8.97,6.91,4.85-.66,11.6-7.19,11.95-11.09-1.03,1.03-2.2,2.36-3.52,3.49-1.68,1.43-3.62,2.19-4.75,2.12.88-1.28,2.01-2.44,1.92-4.15-1.06,1.03-3.33,2.95-3.4,2.88.41-1.34.82-2.68,1.29-4.23-1.25,1.82-4.08,5.01-4.37,5.03.8-.44,1.6-.88,2.39-1.31Zm108.13,9.77c-.56,3.67-2.35,6.67-4.83,9.32-.4.43-.51,1.14-.75,1.71,2.36-2.65,5.09-4.99,5.73-8.69.57,2.95.48,5.78-1.1,8.46.47-.36.79-.76,1.05-1.19.98-1.63,1.74-3.43,2.94-4.86,1.43-1.7,3.05-3.22,3.75-5.43.09.04-.55,3.04-1.05,4.8,2.12-1.89,3.28-3.98,3.61-6.56-.53.98-1.07,1.96-1.75,3.22q.03-3.03-.87-4.19c-.29,4.1-3.05,6.46-5.45,9.17-.16-2-.06-3.98-1.28-5.78Zm77.42-34.96c.03.07.07.14.1.21-.89.44-1.77.89-2.66,1.33,2.72-.57,5.17.62,7.72.96-3.42,1.04-7.07.77-10.44,1.88.02.1.04.19.06.29,1.98-.23,3.96-.46,5.94-.68.04.12.07.24.11.35l-3.13,1.59c.06.11.11.22.17.32,1.15-.54,2.42-.93,3.43-1.67.93-.68,1.86-.94,2.95-1.08,1.94-.26,3.77-.88,5.29-2.25-3.08.93-6.07.32-9.11-.3.38-.6.72-1.14,1.17-1.87-1.93.23-3.58.43-5.23.63,0,.09,0,.19.01.28h3.62ZM87.33,106.57c-.63,2.05-1.33,4.58-1.96,6.65,1.82.18,2.33-.35,2.86-.45-.15,3.02-.3,6.16-.44,9.07.45-3.94-.04-4.28,1.99-10.74-1.12.64-3.5,1.74-3.58,1.65,1.24-2.98,1.93-6.06,1.87-9.3-.42,1.27-.84,2.52-2.15,3.33,0-1.44.17-2.54.06-4.17-.44,2.05-.87,4.05-1.38,6.42.95-.82,2.64-2.49,2.73-2.45Zm-42.21-30.93c-.16.8-.24,1.17-.3,1.78.32-1.17,1.02-1.91,1.82-3.27.21-.41.17-.74.21-1.04-.88.9-1.49,1.63-1.73,2.53Z"/>
      <path class="cls-2" d="m41.3,89.06c-.55,2.15-1.64,3.97-3.26,5.47-2.63,2.44-4.89,5.13-6.12,8.57-.71,1.99-1.09,4-.82,5.89-.72,1.53-1.45,2.86-1.97,4.27-.64,1.74-.68,3.56-.18,5.35.12.41.31.81.53,1.17.44.7,1.06,1.2,1.94.97.87-.23,1.2-.94,1.24-1.78.04-.98.17-2-.96-2.84.28,1.42.91,2.7-.16,3.89-1.13.16-1.43-.66-1.7-1.43-.95-2.71.34-7.32,2.55-9.19.33-.28.7-.52,1.09-.69,2.42-1.11,4.73-.32,6.23,2.09,1.39,2.22,1.41,4.58.67,7-.65,2.1-1.69,4.01-3.24,5.55-1.99,1.98-3.98,3.99-6.19,5.69-2.83,2.18-6.21,1.38-7.93-1.77-2.22-4.07-2.9-8.44-2.23-13.05.91-6.28,4.15-11.08,9.13-14.82,1.56-1.17,3.14-2.32,4.83-3.28,2.94-1.68,5.47-3.67,6.55-7.07Z"/>
      <path class="cls-2" d="m26.34,133.84c-.74.36-1.73-.92-1.81-.86.36.45.61,1.07,1.1,1.29s1.36.3,1.78-.21c.56-.68-.3-1.72-.2-2.72,2.9.1,5.26-1.49,7.23-3.88.09.05.18.1.27.15-.11.77-.15,1.55-.33,2.3-.73,2.9-2.2,5.35-4.59,7.18-2.99,2.29-6.27,2.01-8.85-.72-2.34-2.48-3.29-5.55-3.59-8.84-.4-4.47.49-8.77,2.23-12.96,0,.26,0,.51,0,.77,0,.26,0,.52-.02.78-.19,3.78.45,7.4,2.06,10.84.71,1.53,1.71,2.77,3.2,3.64,1.07.62,3.07,2.51,1.53,3.24Z"/>
      <path class="cls-2" d="m60.69,61.32l-.44.88c-.21.42-.58.74-1.02.91-.47.18-.98.4-1.44.52-.07-.13,1.69-1.56,2.9-2.31Z"/>
    </g>
  </g>
  <g id="Layer_2_Image-2" data-name="Layer 2 Image">
    <g>
      <path class="cls-1" d="m98.38,0c-1.48.59-2.97,1.19-4.56,1.82,1.38-.1,2.67-.2,3.96-.28.44-.03.94-.13,1.3.04.48.24,1.08.65,1.19,1.1.09.36-.43,1.19-.78,1.26-1.4.27-2.83.38-4.26.43-.68.03-1.37-.2-2.26-.34.36.85.69,1.53.94,2.24.26.76.47,1.62-.34,2.15-.88.58-1.58,0-2.19-.62-1.04-1.06-1.8-2.28-1.95-3.78-.09-.88-.52-1.09-1.31-1.04-1.4.1-2.83,0-4.19.24-1.06.19-2.04.79-3.05,1.21.02.17.05.33.07.5.48.09,1.01.08,1.41.31.48.28.84.77,1.25,1.16-.43.37-.85,1.03-1.3,1.05-1.21.07-2.48.05-3.63-.28-1.9-.54-3.63-.3-5.31.59-4.35,2.31-8.94,2.71-13.79,2.14-2.21-.26-4.6-.06-6.76.49-3.72.95-7.35,2.3-10.98,3.56-1.12.39-1.19.82-.26,1.52,3.06,2.28,6.33,4.02,10.34,3.95,1.43-.03,2.91.14,4.29.51,3.13.84,5.86.09,8.41-1.73,1-.71,2.06-1.21,2.44-2.66.26-1.01,1.24-1.87,2.03-2.68.29-.3.94-.26,1.43-.37,0,.47,0,.95-.02,1.42,0,.12-.03.23-.06.43,1.57-.72,3.02-1.52,4.57-2.07,1.72-.62,3.51-1.06,5.29-1.48.66-.16,1.49-.17,1.8.67.32.86-.24,1.47-.89,1.85-1.37.78-2.79,1.46-4.19,2.17-.37.19-.75.35-1.34.61,1.11.17,1.98.22,2.79.45.37.11.64.56.95.86-.32.31-.62.87-.96.9-2.04.17-4.09.21-6.14.3-.24,0-.48,0-.73,0l-.13.33c1.4.62,2.76,1.34,4.2,1.84,1.82.63,3.69,1.11,5.55,1.63,2.21.62,4.3,1.44,6.14,2.88,1.67,1.3,3.52,2.28,5.63,2.74.85.19,1.68.51,2.48.87,1.62.72,2.94.38,4.16-.86,2.09-2.14,5.53-2.74,8.23-1.48,1.39.65,2.72,1.43,4.15,1.97,1,.38,2.12.59,3.19.62,1.47.05,2.6-.61,3.56-1.84,1.45-1.86,3.03-3.65,4.78-5.22,1.11-.99,2.61-1.56,3.98-2.21.33-.15,1.06,0,1.25.28.2.28.13,1.02-.11,1.29-1.18,1.28-2.45,2.49-3.71,3.69-.43.41-.94.73-1.41,1.09.04.09.09.17.13.26,1.56-.31,3.1-.74,4.67-.9,1.51-.15,3.05-.1,4.56.03.44.04.84.62,1.25.95-.34.42-.6,1.09-1.02,1.21-1.97.56-3.97,1.03-5.99,1.42-1.53.29-3.09.42-4.63.61-.03.1-.07.2-.1.3.35.27.67.61,1.06.81,3.6,1.87,6.94,4.09,9.84,6.96.73.72,1.54.59,2.43.26,1.67-.63,3.37-1.22,5.09-1.73.61-.18,1.31-.17,1.95-.07.37.05.91.39.97.68.06.3-.29.87-.6,1.02-.95.44-1.96.73-2.95,1.07-.2.07-.41.13-.82.26.41.11.63.21.86.23,4.23.3,8.47.63,12.7.87,3.13.18,6.03-.89,8.94-1.88.26-.09.44-.4.67-.6,1.64-1.51,3.27-3.03,4.94-4.51.38-.34.88-.62,1.37-.75.41-.11.89.03,1.35.06-.05.45.05.99-.18,1.32-.46.68-1.08,1.26-1.65,1.86-.28.3-.6.57-.8,1.04,3.85-.81,7.2-2.64,10.49-4.94-.23-.2-.38-.33-.53-.46-.77-.7-.69-1.29.32-1.59.82-.24,1.36-.41,1.26-1.52-.09-.98,1.17-1.54,2.19-.96.76.43,1.04.19,1.45-.4.82-1.19,1.63-2.44,3.1-2.91.4-.13.89.01,1.33.03-.1.43-.13.9-.32,1.29-.21.41-.58.73-1.1,1.36.77-.14,1.22-.3,1.67-.29.48.02.96.2,1.44.31-.23.42-.4.91-.72,1.25-.38.4-.89.66-1.53,1.12,1.94.3,3.62.18,5.2-.48,2.02-.84,4.01-1.76,5.93-2.8.71-.39,1.34-1.14,1.73-1.87,1.09-2.1,1.97-4.3,3.06-6.4.52-.99,1.27-1.88,2.02-2.72.21-.24.76-.18,1.16-.26.05.4.25.86.12,1.2-.35.91-.84,1.77-1.37,2.83,1.41-.84,2.61-1.61,3.88-2.27.65-.34,1.52-1,2.13-.16.65.89-.21,1.57-.8,2.1-1.33,1.18-2.74,2.27-4.13,3.4.05.05.1.12.17.15.49.23.98.44,1.47.66-.37.44-.65,1.05-1.12,1.29-1.16.59-2.39,1.1-3.63,1.49-1.92.61-3.81,1.18-5.54,2.32-3.21,2.11-6.77,3.34-10.63,3.4-2.9.05-5.34,1.24-7.72,2.67-2.78,1.67-5.53,3.38-8.32,5.01-.85.5-.99,1.03-.27,1.6.78.61,1.64,1.16,2.55,1.56,1.47.65,3.08,1.02,4.5,1.76,2.2,1.13,4.37.86,6.47,0,3.01-1.22,6.05-.78,9.07-.35,1.04.15,2.11.68,2.97,1.3,1.89,1.37,3.97,1.99,6.27,2.04.66.01,1.32,0,1.97.03,2.03.13,3.64-.42,4.69-2.37.38-.71,1.21-1.24,1.92-1.7.49-.32,1.21-.31,1.35.48.13.72.45.65,1,.56.81-.14,1.65-.23,2.47-.17.39.03,1.09.46,1.07.66-.04.45-.34,1.02-.72,1.25-.62.38-1.37.55-2.08.77-.86.26-1.73.48-2.6.71-.02.15-.04.3-.06.45,1.3.39,2.61,1.13,3.91,1.11,3.77-.07,7.41.67,11.04,1.43,2.21.47,4.35.19,6.52-.09,1.3-.17,2.6-.4,3.89-.59.3-.04.63-.1.91-.01.35.1.66.35.99.53-.21.35-.38.73-.65,1.03-.19.21-.51.31-.95.56.62.19,1.14.25,1.53.51.35.23.56.69.83,1.05-.37.24-.76.72-1.09.68-2.38-.3-4.77-.56-7.1-1.11-3.32-.79-6.55-1.89-9.87-2.69-1.28-.31-2.69-.25-4.03-.16-1.98.14-3.86-.05-5.55-1.15-1.47-.95-2.99-1.21-4.75-.93-2.62.41-5.3.88-7.91-.18-.85-.34-1.75-.62-2.5-1.11-3.71-2.43-7.68-2.7-11.84-1.54-.66.18-1.31.4-2.25.69,1.26.61,2.24,1.04,3.18,1.54.58.31,1.2.62,1.62,1.1.36.4.46,1.03.67,1.55-.57.12-1.14.35-1.69.32-.5-.03-.99-.34-1.47-.53-.36-.14-.71-.29-1.24-.51.27.73.6,1.27.65,1.84.05.5-.04,1.24-.37,1.5-.31.24-1.2.2-1.5-.07-1.12-1.03-2.11-2.2-3.11-3.34-.28-.32-.46-.73-.83-1.34-.32.83-.46,1.51-.83,2.04-.3.44-.87.69-1.32,1.03-.33-.48-.95-.97-.92-1.42.07-1.02.32-2.09.77-3,.47-.95.25-1.48-.57-1.92-.5-.27-1.01-.55-1.55-.69-1.98-.53-3.77-1.44-5.34-2.74-1.15-.94-2.42-1.29-3.8-.77-2.24.84-4.51,1.66-6.65,2.72-1.43.71-1.39,1.27-.28,2.4.25.25.52.47.77.71.7.67,1.22.75,2.09.01,1.08-.91,2.42-1.55,3.72-2.12.41-.18,1.07.23,1.62.37-.24.51-.43,1.05-.74,1.52-.18.27-.53.42-.74.57,1.2,0,2.44-.09,3.66.04.5.05.94.58,1.41.9-.38.37-.69.94-1.14,1.09-1.3.42-2.66.68-4.16,1.04.95.91,1.76,1.9,2.77,2.61,3.37,2.38,6.22,5.33,8.7,8.53,2.2,2.84,4.96,4.02,8.34,4.22,4.15.24,6.83,2.47,8.34,6.19.4,1,1.06,1.62,1.85,2.28.96.8,1.77,1.8,2.55,2.78.22.27.13.79.18,1.2-.37.02-.8.18-1.11.05-1.1-.48-1.1.08-.94.88.15.77.43,1.82-.47,2.07-1.08.3-1.23-.9-1.45-1.64-.34-1.13-.51-2.3-.75-3.46-.08-.37-.14-.74-.23-1.18-.24.12-.34.18-.45.23-.33.16-.65.31-.98.46-.09-.37-.28-.74-.25-1.09.06-.74.3-1.46.36-2.2.04-.54.09-1.19-.16-1.63-1.08-1.89-2.53-3.3-4.87-3.58-2.5-.3-4.98-.75-7.47-1.14.02.4.11,1,.08,1.6-.07,1.22-.98,1.77-1.99,1.1-.69-.46-1.21-1.21-1.69-1.92-.28-.41-.29-.78-1.01-.56-1.26.4-2.33-.77-1.78-1.97.38-.84,1.05-1.6,1.75-2.23.48-.43.62-.67.16-1.12-1.29-1.24-2.53-2.53-3.88-3.71-1.71-1.49-3.48-2.92-5.26-4.33-1.2-.95-2.49-1.78-3.7-2.71-1.77-1.35-3.61-2.63-5.23-4.14-2.2-2.07-4.86-2.88-7.71-3.32-1.47-.22-2.95-.31-4.51-.32.22.14.42.29.65.41.46.25,1.04.39,1.37.75.45.51,1.1,1.3.97,1.77-.26.92-1.18.37-1.81.23-.59-.13-1.16-.38-1.91-.64.14.49.33.87.34,1.25.02.41,0,.99-.24,1.19-.24.19-.91.14-1.19-.08-1.36-1.03-2.81-1.99-3.93-3.25-2.92-3.28-6.44-5.79-10.04-8.2-1.96-1.31-4.12-2.32-6.19-3.46-1.21-.66-2.5-.82-3.83-.52-2.31.53-4.43-.06-6.49-1.02-1.23-.57-2.42-1.25-3.66-1.79-2.42-1.04-5.53-.09-6.77,2.14.73.17,1.45.29,2.12.52.78.27,1.59.55,2.27.99.34.23.42.84.62,1.28-.42.17-.82.39-1.25.49-.23.06-.5-.07-1.07-.17.68.59,1.25.92,1.58,1.42.32.49.4,1.14.58,1.72-.53-.01-1.17.15-1.58-.07-2.42-1.33-4.84-2.65-7.14-4.16-2.24-1.46-4.4-3.01-7.11-3.5-.55-.1-1.12-.32-1.57-.64-3.24-2.26-7.13-2.84-10.73-4.13-1.54-.55-3.25-.62-4.88-.94-.73-.15-1.48-.29-2.14-.61-1.44-.69-2.81-.59-4.15.18-.91.52-1.83,1.04-2.63,1.7-1.1.92-1.24,1.75-.31,2.83,1.08,1.25,2.38,2.31,3.61,3.42,2.54,2.28,5.22,4.42,7.59,6.86,1.47,1.52,2.49,3.48,3.67,5.27,1.88,2.84,4.02,5.52,5.31,8.74.6,1.51,2.02,2.46,3.49,3.06,4.41,1.81,8.95,3.11,13.79,2.65.89-.08,1.76-.47,2.61-.81,2.19-.89,4.34-1.87,6.54-2.74.63-.25,1.38-.34,2.05-.27.43.04,1.05.44,1.16.81.1.35-.25.98-.59,1.27-.51.45-1.18.71-2.05,1.21,1.1.11,1.94.18,2.77.29.43.05.9.09,1.27.29.34.18.79.56.79.85,0,.32-.4.84-.72.93-1.09.3-2.21.57-3.33.62-1.2.05-2.42-.16-3.89-.28.88,1.45,1.83,2.49,3.27,3.05-.43,1.05-1.18,1.18-1.9.6-.99-.78-1.94-1.64-2.72-2.62-.86-1.08-1.9-1.49-3.19-1.47-.92.02-1.84.05-2.75.18-2.43.36-4.81.24-7.15-.49-2.26-.7-4.51-1.45-6.74-2.22-.74-.26-1.11-.25-.93.67.22,1.17.02,2.22-.72,3.23-.31.42-.39,1.19-.27,1.72.45,1.92.99,3.82,1.61,5.69.21.64.72,1.18,1.11,1.76.92,1.38,1.89,2.74,2.73,4.17.21.35-.02.95-.04,1.44-.48-.1-1.07-.05-1.41-.32-.67-.54-1.2-1.25-1.95-2.06-.19.82-.33,1.51-.51,2.2-.1.38-.19.79-.41,1.11-1.51,2.17-1.05,4.02.67,5.87.92.98,1.65,2.17,2.29,3.35.26.47.06,1.19.07,1.79-.6-.09-1.21-.13-1.8-.28-.26-.06-.47-.32-.93-.65.18.89.43,1.53.39,2.15-.04.58-.4,1.14-.63,1.71-.5-.27-1.19-.41-1.48-.83-1.09-1.6-1.44-3.45-1.47-5.37,0-.43,0-.87,0-1.64-.4.49-.57.77-.8.97-.34.28-.73.5-1.1.75-.17-.46-.53-.94-.48-1.37.21-1.77.89-3.37,2.08-4.74,2.68-3.07,3.03-8.14,1.29-11.63-.03-.06-.14-.07-.46-.22-.29,1.93-.56,3.79-.86,5.79-1-1.47-1.33-3.02-1.47-4.72-.41.7-.76,1.46-1.26,2.09-.25.31-.78.4-1.18.6-.13-.42-.43-.88-.36-1.27.5-2.81,1.72-5.32,3.45-7.57.48-.62,1.15-1.17,1.43-1.87.32-.8.68-1.88.39-2.59-1.58-4.02-2.71-8.25-5.24-11.86-2.06-2.94-4.08-5.93-6.78-8.35-2.11-1.89-4.58-3.21-7.27-4.13-1.74-.6-3.46-1.25-5.2-1.83-.34-.11-.75-.04-1.12-.05.05.33.09.66.15.98.35,1.6,1.25,2.81,2.47,3.91,1.23,1.1,2.29,2.42,3.28,3.74.31.42.44,1.38.17,1.74-.5.68-1.2.11-1.7-.29-.64-.52-1.22-1.11-1.91-1.75.25,1.31.54,2.52.7,3.75.11.82.12,1.67,0,2.48-.07.44-.5.83-.77,1.25-.34-.31-.88-.57-.98-.94-.49-1.8-.93-3.63-1.25-5.47-.22-1.24-.24-2.53-.31-3.79-.12-2.38-1.84-3.76-3.24-5.37-2.12-2.43-4.86-4.03-7.58-5.57-1.71-.97-3.78-1.29-5.69-1.92-1.82-.6-3.68-1.12-5.45-1.86-1.96-.82-3.93-1.48-6.07-1.53-.35,0-.72,0-1.05-.09-3.2-1.01-6.41-.6-9.63-.13-2.01.29-3.93-.03-5.76-.91-1.26-.61-2.56-.66-3.96-.59-2.04.1-4.1-.1-6.14-.23-.83-.05-1.64-.28-2.46-.42V0h4.73c3.12,1.23,6.37,1.88,9.71,2.04,3.15.15,6.29.16,9.26,1.53,1.3.6,2.72.5,4.07-.18.61-.31,1.32-.56,2-.59C32.05,2.7,33.66,1.39,35.25,0,37.44,0,39.63,0,41.82,0c-1.04.31-2.09.61-3.13.93-.79.25-1.75.32-2.33.82-1.82,1.57-3.78,2.8-6.1,3.48-.24.07-.46.25-.68.4-2.22,1.62-4.71,1.97-7.37,1.63-.67-.09-1.36-.01-2.04-.01.4.33.81.5,1.23.6,3.57.88,7.12,1.9,10.73,2.55,1.89.34,3.93.19,5.86-.06,2.41-.31,4.84-.73,6.85-2.36.44-.36,1.12-.56,1.71-.6,2.75-.22,5.5-.4,8.14-1.27.2-.07.44-.05.65-.04,2.63.1,5.26.08,7.87.33,3.1.29,5.96-.37,8.84-1.45,5.31-1.98,10.61-4.14,16.46-3.99,1.18.03,2.37-.05,3.54-.21,1.15-.16,2.29-.48,3.43-.74.96,0,1.93,0,2.89,0Zm-29.3,16.41c.04.14.07.27.11.41.32,0,.68.09.97-.01,3.14-1.17,6.29-2.34,9.4-3.61.61-.25,1.04-.91,1.56-1.38-.79.02-1.65-.18-2.35.09-2.28.87-4.51,1.89-6.73,2.9-1.02.47-1.98,1.06-2.96,1.6Zm63.66,10.32c-4.2-.58-8.07.56-11.84,2.24,3.96-.68,8.08-.44,11.84-2.24Zm-4.89-5.48c-2.46.15-7.37,4.36-8.03,6.87,2.68-2.29,5.35-4.58,8.03-6.87ZM92.92,2.38c-.01.16-.02.31-.03.47,1.83.81,3.77.91,5.73.8.27-.01.51-.36.77-.55-.25-.24-.5-.68-.76-.69-1.9-.06-3.8-.03-5.71-.03Zm116.63,14.86c-1.78.18-5.82,3.26-6.74,5.13,2.3-1.75,4.97-2.71,6.74-5.13Zm-98.14,37.13c-1.76-.24-5.74,1.27-6.66,2.47,2.51-.3,4.68-1.15,6.66-2.47Zm67.22-7.55c.6,1.88,1.91,2.93,2.98,4.14.2.23.62.27.94.4-.05-.36,0-.77-.16-1.07-.78-1.51-1.91-2.67-3.77-3.47Zm-3.31,15.87c-.82,1.79-.72,2.87.27,3.81.3.28.83.31,1.26.46.06-.4.3-.89.16-1.2-.44-.98-1.02-1.89-1.69-3.07ZM90.56,3.3c-.25,1.53.7,3.7,1.77,4.3.17.1.56.17.58.13.11-.25.27-.57.2-.81-.43-1.42-1.26-2.56-2.55-3.62Zm-7.28,79.38l-.43.15c-.07,1.89.36,3.68,1.22,5.37.12.23.43.35.66.53.08-.26.28-.56.21-.78-.53-1.76-1.1-3.51-1.66-5.26Zm20.44-47.15c.08-.12.16-.23.24-.35-1.94-1.69-4.07-3.06-6.52-3.89-.07.12-.14.23-.21.35,2.16,1.3,4.32,2.6,6.48,3.89Zm-45.64,1.75c.37,2.33.14,4.79,1.41,6.89.32-2.48-.47-4.71-1.41-6.89Z"/>
      <path class="cls-1" d="m315.54,6.37c-.15.4-.39.85.41.54,1.18-.46,2.37-.91,3.56-1.34.33-.12.68-.24,1.02-.24.27,0,.68.1.77.29.1.19-.02.67-.2.79-.78.54-1.57,1.15-2.45,1.46-1.39.48-2.85.72-4.42,1.35.66.3,1.3.67,1.98.9,2.23.75,4.51,1.37,6.71,2.21.99.38,1.8,1.22,2.74,1.76,2.15,1.24,4.22,2.75,6.52,3.58,8.17,2.95,16.46,2.9,24.78.5,1.93-.56,3.94-.81,5.88-1.32,1.29-.34,2.61-.74,3.77-1.38,2.95-1.63,5.81-3.42,8.73-5.12.67-.39,1.08-.72.86-1.63-.13-.54.04-1.25.31-1.75.25-.48.82-.79,1.25-1.17.32.42.64.84.88,1.14,1.37-1.03,2.87-2.15,4.37-3.28-1.51,1.29-3.1,2.51-3.93,4.42,1.83-.84,3.27-2.13,4.43-3.74.54-.75-.14-.61-.53-.66.38-.11.76-.23,1.14-.34-.12.39-.16.82-.37,1.15-.43.65-.95,1.25-1.59,2.08,1.08-.21,1.92-.42,2.79-.52.33-.04.7.18,1.05.29-.26.26-.48.62-.8.78-.69.34-1.43.59-2.12,1.05,3.12.36,6.26.61,9.36,1.1,2.8.44,5.57.52,8.37.19.35-.04.71-.25,1-.47,1.23-.91,2.43-1.86,3.66-2.77.18-.13.47-.13.71-.19-.05.26-.02.59-.17.78-.53.68-1.12,1.31-1.8,2.08,1.28,0,2.4-.02,3.51.01.34.01.72.1,1,.28.29.2.61.53.66.84.03.19-.4.6-.68.66-.67.16-1.4.31-2.07.22-1.47-.2-2.9-.64-4.37-.82-1.1-.14-2.23-.03-3.34-.03l-.05.35c.73.51,1.51.96,2.17,1.55.3.27.36.81.53,1.22-.44.09-.98.38-1.3.22-1.47-.74-2.88-1.61-4.31-2.43-.41-.23-.81-.62-1.23-.65-4.01-.3-8.03-.64-12.05-.77-2.27-.07-4.39.76-6.35,1.91-1.85,1.09-3.7,2.19-5.55,3.28-2.03,1.2-4.06,2.4-6.24,3.69,1.12.25,2.15.53,3.2.72,1.93.35,3.61,1.1,5.19,2.35,1.89,1.5,4.24,2.02,6.65,2.16,1.27.07,2.53.19,3.8.19,1.31,0,2.62-.05,3.91-.25,2.51-.38,5.01-.85,7.49-1.35.74-.15,1.52-.43,2.14-.86,1.94-1.33,4-2.35,6.31-2.83.34-.07.69-.14,1.04-.13.23,0,.46.17.69.26-.1.22-.16.48-.31.66-.21.26-.48.46-.68.66.51.26.96.48,1.41.71-.48.27-.94.6-1.45.78-.64.22-1.33.31-2.05.72.76.22,1.53.43,2.28.67,1.83.6,3.66,1.19,5.46,1.85.56.21,1.07.6,1.54.98.19.16.23.51.34.77-.27.1-.56.34-.8.29-.76-.15-1.49-.4-2.15-.58.72.78,1.51,1.57,2.22,2.44.26.32.3.82.44,1.24-.45-.04-1.01.07-1.33-.16-1.02-.74-1.99-1.57-2.91-2.43-.83-.77-1.67-1.57-2.36-2.47-1.1-1.43-2.6-1.93-4.25-1.93-1.74,0-3.51.09-5.23.38-2.63.44-5.21,1.16-7.85,1.6-1.53.26-3.12.22-4.68.28-1.07.04-2.14,0-3.21,0-.02.11-.04.21-.06.32.63.36,1.28.69,1.88,1.1.26.17.41.5.6.76-.34.14-.72.47-1,.39-1.09-.29-2.15-.71-3.21-1.09-.2-.07-.38-.16-.68-.12.47.59.99,1.16,1.4,1.8.16.24.18.66.07.93-.05.12-.58.19-.82.09-.64-.27-1.31-.55-1.84-.98-1.81-1.45-3.19-3.29-4.04-5.43-.45-1.13-1.13-1.77-2.18-2.04-4.44-1.13-8.89-2.09-13.48-.82-5.85,1.61-11.78,1.58-17.74.85-.07,0-.15.06-.33.14,1.55,1.65,3.06,3.28,4.62,4.86.25.25.69.34,1.06.45,1.97.6,3.96,1.13,5.91,1.78.78.26,1.51.7,2.19,1.17.26.18.48.71.39.99-.07.24-.61.5-.92.48-.78-.05-1.55-.21-2.32-.4-.58-.14-1.14-.38-1.82-.43.45.5.96.95,1.35,1.5.52.72,1.38,1.55.46,2.41-.84.78-1.72.05-2.28-.57-1.11-1.22-2.07-2.58-3.1-3.89-.41.45-.88,1.16-1.53,1.59-.47.31-1.18.24-1.78.34-.02-.58-.19-1.21-.02-1.73.18-.55.62-1.06,1.05-1.47.44-.42.38-.68,0-1.06-1.54-1.5-3.04-3.03-4.61-4.5-.43-.4-1.03-.67-1.59-.9-2.06-.86-4.21-1.54-6.19-2.55-1.37-.7-2.72-1.65-3.73-2.8-1.84-2.08-4.11-3.21-6.71-3.86-1.57-.39-3.17-.7-4.73-1.13-2.79-.77-5.53-.36-8.33-.01-1.73.21-3.57.03-5.3-.28-2.7-.49-5.32-1.47-8.03-1.84-3.02-.41-6.11-.32-9.16-.53-2.71-.19-5.29.45-7.93,1.34.46.15.9.35,1.37.44,2.15.43,4.3.86,6.46,1.22,3.78.63,7.41,1.62,10.74,3.64,1.82,1.1,3.74,1.01,5.55-.29.59-.43,1.31-.75,2.01-.93.42-.11.93.17,1.41.27-.23.39-.37.88-.7,1.13-.54.41-1.21.67-2.07,1.12.93.14,1.67.16,2.34.38.38.12.66.56.98.86-.37.26-.75.75-1.1.73-1.17-.09-2.32-.36-3.47-.57-1.15-.21-2.33-.33-3.44-.65-1.53-.45-3.2-.79-4.48-1.66-1.83-1.25-3.72-1.98-5.87-1.95-2.58.03-5.17.09-7.73.39-3.27.38-6.07-.22-8.69-2.39-1.65-1.37-3.65-2.56-5.7-3.15-2.16-.62-4.56-.4-6.85-.61-1.02-.09-2.16-.09-3.03-.55-1.79-.94-3.61-1.28-5.58-1.06-.83.09-1.67.1-2.49.21-1.96.28-2.53,1.32-1.58,3.01,1.39,2.48,3.28,4.57,5.62,6.16,2.77,1.89,5.76,3.27,9.21,3.48,1.74.11,3.46.58,5.19.79.94.11,1.9.02,3.07.02-.37-.42-.68-.7-.89-1.04-.15-.24-.31-.65-.21-.82.15-.25.53-.43.84-.49.28-.05.62.04.89.17.76.36,1.39.73,1.97-.39.31-.6,1.05-.27,1.42.24.27.38.41.85.62,1.31.97-.39,1.93-.79,2.9-1.18.16-.07.34-.16.5-.14.74.1,1.86,0,2.12.41.48.79-.52,1.19-1.09,1.63-.13.1-.26.22-.5.43.63.21,1.21.29,1.65.58.46.31.79.83,1.17,1.26-.5.27-.97.63-1.5.77-.48.13-1.03.03-1.78.03,1.35,1.23,2.7,2.11,4.28,2.65,2.37.8,4.81.94,7.27.71,2.35-.22,4.71-.48,7.06-.74,3.87-.44,7.35.78,10.73,2.46.7.35,1.38.73,2.26,1.2-.42-1.13-.82-2.03-1.08-2.97-.1-.35.12-.79.2-1.18.36.19.87.29,1.05.59.79,1.36,1.58,2.73,2.19,4.17.38.93.86,1.24,1.84,1.24,1.48,0,2.97.19,4.45.34.52.05,1.06.17,1.51.4.38.19.66.6.99.91-.41.26-.79.69-1.22.73-.86.08-1.73-.05-2.7.02,2.99,1.43,5.23,3.68,6.99,6.45l.31-.13c0-.7-.11-1.43.04-2.1.09-.43.5-.97.89-1.1.27-.09.91.34,1.1.69.43.79.68,1.68,1.05,2.62.52-.26,1.04-.57,1.59-.79.61-.24,1.24-.53,1.87-.56.44-.02.9.35,1.35.54-.21.44-.3,1.01-.64,1.29-.49.41-1.14.63-1.73.91-.38.18-.78.32-1.18.48,1.28.6,2.53,1.12,3.71,1.77.38.21.56.78.84,1.18-.44.13-.89.41-1.31.36-1.11-.14-2.2-.41-3.47-.67.4.48.77.83,1.01,1.26.15.27.25.73.11.95-.13.22-.65.42-.88.33-.8-.31-1.71-.58-2.3-1.16-1.37-1.34-2.85-2.69-3.8-4.32-1.97-3.42-4.79-5.7-8.24-7.42-2.23-1.11-4.29-2.57-6.5-3.73-1.78-.93-3.63-1.74-5.51-2.45-2.17-.82-4.4-.88-6.73-.57-3.03.41-6.1.54-9.16.71-.94.05-1.9-.13-2.89-.2,0,.19-.05.34,0,.43,2.78,4.2,5.35,8.53,8.73,12.33,2.21,2.49,4.97,4.11,7.95,5.58-.5-.72-1.13-1.38-1.47-2.16-.33-.74-.36-1.62-.52-2.44,1.11-.03,1.36.96,1.83,1.62.49.7.84,1.49,1.33,2.4.35-.91.6-1.66.93-2.36.24-.51.48-1.08.88-1.45.44-.4,1.08-.58,1.63-.86.2.58.67,1.21.55,1.71-.35,1.47-.93,2.88-1.46,4.42.64.12,1.45.22,2.23.43.88.24,1.78.49,2.6.89.41.2.65.73.97,1.1-.45.28-.89.78-1.35.81-.9.05-1.82-.14-2.72-.27-.33-.05-.64-.2-1.26-.41,1.26,2.28,1.8,4.55,3.99,5.98,2.04,1.33,3.85,3.04,5.7,4.65.71.62,1.66,1.52.89,2.44-.79.93-1.77,0-2.54-.5-.61-.4-1.15-.92-1.91-1.54.33,1.21.69,2.18.83,3.19.07.52-.26,1.09-.41,1.64-.51-.26-1.15-.4-1.51-.79-.49-.54-.85-1.23-1.11-1.92-.45-1.18-.92-2.39-1.15-3.63-.58-3.18-1.64-6.17-3.31-8.91-.52-.85-1.31-1.61-2.13-2.18-1.04-.72-2.23-1.21-3.37-1.77-6-2.95-10.39-7.69-14.2-13.01-2.08-2.9-4.14-5.77-7.05-7.91-.32-.23-.63-.5-.85-.82-1.48-2.21-3.71-2.54-6.12-2.55-3.13-.02-6.17.5-9.24,1.05-3.15.57-6.21-.05-8.87-1.97-1.17-.84-2.2-1.88-3.35-2.75-1.6-1.2-3.21-2.41-4.92-3.45-3.02-1.85-6.25-3.4-9.16-5.4-5.77-3.96-12.22-5.68-19.04-6.1-5.99-.37-12-.3-18-.54-5.73-.23-11.46-.63-17.2-.91-3.81-.18-7.63-.15-11.42-.46-2.47-.2-4.9-.85-7.35-1.3,34.81,0,69.62,0,104.43,0,2.52.97,5.07,1.89,7.57,2.92,2.62,1.09,5.27,1.65,8.16,1.62,3.93-.05,7.88.14,11.8.53,2.28.23,4.56.87,6.72,1.67,3.63,1.36,7.31,1.59,11.1,1.24,1.17-.11,2.37-.14,3.53,0,.84.1,1.24-.19,1.72-.81.86-1.09,1.84-2.11,2.84-3.07.46-.44,1.07-.77,1.66-1.03.3-.13.72.03,1.08.06-.08.32-.11.67-.25.96-.11.23-.35.39-.53.58.17-.43.33-.86.51-1.33-1.82.31-4.51,2.92-4.96,4.9.95-.69,1.78-1.28,2.61-1.88Zm-11.13,49.67c-.09.1-.18.2-.27.3,1.44,2.17,3.08,4.16,5.31,5.59.28.18.71.15,1.07.22-.09-.39-.06-.93-.3-1.15-1.9-1.69-3.86-3.31-5.8-4.96Zm2.16,8.42c.12-2.73-1.23-4.82-2.91-6.77.56,2.42.93,4.93,2.91,6.77Zm-8.57-17.84c.21.04.3.09.37.07,1.19-.44,2.84-3.67,2.42-4.84-.04-.12-.63-.22-.72-.12-1.2,1.41-1.9,3.04-2.07,4.89Zm1.44.83c-.05.15-.1.3-.16.45,1.33,1.57,3.09,2.03,5.09,1.8.23-.03.43-.23.65-.35-.19-.21-.35-.54-.58-.61-1.66-.46-3.33-.87-5-1.3Zm45.09-20.03c1.09,1.46,5.33,3,7.01,2.57-2.2-1.48-4.63-1.94-7.01-2.57Zm.19,1.43c-.13.13-.25.25-.38.38.68,1.5,1.53,2.89,2.91,3.88.27.2.71.17,1.07.24-.05-.35.03-.83-.16-1.04-1.11-1.19-2.28-2.31-3.44-3.46Zm-74.29-8.74c1.79.29,3.47.12,4.94-.99.21-.16.3-.48.45-.73-.27-.09-.55-.27-.81-.24-1.74.15-3.15,1.07-4.57,1.97Zm107.53,8.65c-1.21-1.96-2.94-3.41-4.78-4.75,1.16,2.01,2.38,3.97,4.78,4.75Z"/>
      <path class="cls-1" d="m324.85,0c4.78,2.59,8.96,6.35,14.5,7.45.73.14,1.51.38,2.2.24,2.83-.56,5.47.26,8.14.93.79.2,1.62.21,2.43.31,2.21.26,4.41.49,6.62.79.46.06.94.26,1.34.52.33.21.55.59.82.9-.38.23-.76.67-1.14.66-1.22,0-2.43-.15-3.65-.28-.42-.04-.83-.2-1.57-.38.62.75,1.14,1.21,1.44,1.79.23.44.19,1.03.26,1.55-.53,0-1.24.21-1.57-.05-1.57-1.25-3.12-2.54-4.49-3.99-.67-.71-1.35-1.32-2.26-1.4-1.86-.16-3.75-.3-5.6-.14-1.98.17-3.9,0-5.67-.73-2.33-.96-4.56-2.2-6.79-3.4-2.04-1.1-4.01-2.32-6.02-3.48-.79-.45-1.61-.86-2.42-1.29,1.14,0,2.28,0,3.42,0Zm34.96,11.08c-2.2-1.16-4.54-1.6-7-1.47,2.19,1.17,4.46,1.97,7,1.47Zm-4.1,2.93c-1.03-2.04-2.56-3.48-4.91-3.88,1.37,1.61,2.69,3.29,4.91,3.88Z"/>
      <path class="cls-1" d="m354.57,0c1.29.86,2.54,1.81,3.9,2.55,1.69.92,3.5,1.61,5.2,2.49.6.31,1.09.88,1.55,1.4.2.23.21.62.31.94-.36.05-.79.24-1.08.12-1-.43-1.96-.97-2.92-1.48-.35-.18-.67-.4-1.16-.49.39.59.84,1.15,1.16,1.77.19.38.17.87.25,1.31-.48-.06-1.15.05-1.41-.23-1.11-1.16-2.37-2.3-3.05-3.7-.72-1.47-1.73-2.47-2.98-3.37-.56-.4-1.07-.88-1.6-1.33.61,0,1.23,0,1.84,0Z"/>
      <path class="cls-1" d="m129.41,64.16c1.15.29,2.15.45,3.06.82.45.18.73.77,1.09,1.18-.48.23-.95.61-1.44.66-2.07.2-4.1.03-6.09-.86.67.76,1.38,1.49,2.01,2.27,1.26,1.55,2.74,2.28,4.86,2.3,2.64.02,5.17.87,7.3,2.58.29.23.39.69.58,1.04-.39.15-.78.42-1.17.42-.59,0-1.18-.18-2.04-.34.4.62.72,1.02.91,1.47.16.37.38,1.01.22,1.17-.27.28-.89.47-1.26.36-.87-.26-1.72-.65-2.5-1.11-.82-.49-1.56-1.12-2.48-1.8-.07.51-.09.92-.17,1.32-.21.99-1.12,1.32-1.71.51-.6-.82-1.18-1.83-1.26-2.8-.17-2.02-.88-3.62-2.49-4.83-.03-.03-.07-.06-.09-.09-1.96-2.93-4.85-3.5-8.08-3.14-1.5.17-2.8-.2-4.14-.91-1.19-.63-2.6-.88-3.98-1.32.26-.82.99-1.16,1.93-.82,1.02.37,1.95,1.01,2.98,1.35,1,.33,2.07.51,3.13.64,3.33.39,6.2-1.24,9.26-2.09.75-.21,1.54-.33,2.32-.36.32-.01.91.28.93.49.04.34-.19.8-.46,1.08-.31.33-.77.52-1.23.81Zm7.9,12.09c.11-.15.22-.29.34-.44-1.82-1.87-3.73-3.62-6.34-4.43,1.68,2.05,3.56,3.82,6,4.87Z"/>
    </g>
  </g>
</svg>