<?xml version="1.0" encoding="utf-8"?>
<!-- Generator: Adobe Illustrator 27.3.1, SVG Export Plug-In . SVG Version: 6.00 Build 0)  -->
<svg version="1.1" id="Logos" xmlns="http://www.w3.org/2000/svg" xmlns:xlink="http://www.w3.org/1999/xlink" x="0px" y="0px"
	 viewBox="0 0 269.7 269.7" style="enable-background:new 0 0 269.7 269.7;" xml:space="preserve">
<style type="text/css">
	.st0{fill:#F2F2F3;}
	.st1{fill:none;}
</style>
<g id="Logo_w_text">
	<path class="st0" d="M137.4,195.4h3.1v-28.8h28.2v28.8h3.1V31.8l-3.1-1v131.8l-28.3,0l-0.1-88.5h-2.5L118.9,121l-18.9-46.9h-2.6
		v163.8l3,1V83l17.7,43.7h1.5l17.7-43.8"/>
	<g>
		<g>
			
				<image style="overflow:visible;" width="144" height="128.1" xlink:href="F1CA9F75891E8102.png"  transform="matrix(1 0 0 1 26.7753 25.5547)"/>
		</g>
	</g>
	<g>
		<g>
			
				<image style="overflow:visible;" width="144.7" height="137.7" xlink:href="F1CA9F75891E8106.png"  transform="matrix(1 0 0 1 98.2406 106.4923)"/>
		</g>
	</g>
	<path id="SVGID_x5F_1_x5F_" class="st1" d="M96.2,232.7c11.2,4,23.3,6.2,35.8,6.2c59.2,0,107.1-48.4,107.1-108"/>
	<text>	<textPath  xlink:href="#SVGID_x5F_1_x5F_" startOffset="50.7815%">
<tspan  class="st0" style="font-family:'Montserrat-Light'; font-size:18.0086px;">CONCEPTS</tspan>	</textPath>
</text>
	<path id="SVGID_x5F_00000121281710105783325630000003505455439628453309_x5F_" class="st1" d="M40.4,153.7
		c1.5-71.2,55.3-132.1,139.3-98.2"/>
	<text>	<textPath  xlink:href="#SVGID_x5F_00000121281710105783325630000003505455439628453309_x5F_" startOffset="15.918%">
<tspan  class="st0" style="font-family:'Montserrat-Light'; font-size:18.0086px;">MEGAN HUDLET</tspan>	</textPath>
</text>
</g>
</svg>
