<?xml version="1.0" encoding="UTF-8"?>
<svg id="Layer_2" data-name="Layer 2" xmlns="http://www.w3.org/2000/svg" viewBox="0 0 36.58 36.58">
  <defs>
    <style>
      .cls-1 {
        fill: #f2f2f2;
      }

      .cls-2 {
        fill: none;
        stroke: #f2f2f2;
        stroke-miterlimit: 10;
        stroke-width: .58px;
      }
    </style>
  </defs>
  <g id="Layer_2-2" data-name="Layer 2">
    <g>
      <g id="OBJECTS">
        <path class="cls-2" d="m18.29,36.29h0C8.35,36.29.29,28.23.29,18.29H.29C.29,8.35,8.35.29,18.29.29h0c9.94,0,18,8.06,18,18h0c0,9.94-8.06,18-18,18Z"/>
      </g>
      <path class="cls-1" d="m17.95,26.68c-2.73,0-5.46.02-8.2,0-2.17-.02-2.33-.12-2.35-2.28-.05-4.07-.05-8.15,0-12.22.02-1.95.18-2.19,2.13-2.22,5.85-.1,11.69-.09,17.54-.02,1.68.02,2.06.19,2.09,1.95.07,4.26.08,8.53,0,12.8-.03,1.83-.83,1.97-2.87,1.99-2.78.03-5.56,0-8.34,0Zm9.92-12.91c-.62.36-1.45.71-1.8.94-2.18,1.39-4.36,2.77-6.51,4.2-.91.61-1.63.62-2.59-.03-2.51-1.72-5.55-3.31-8.26-5.04,0,3.59-.11,8.27-.11,11.67,6.13,0,13.22-.11,19.3-.11,0-3.38-.02-8.01-.02-11.63Zm-19.14-2.51c.46.73.63,1.32,1.02,1.57,2.54,1.63,5.1,3.22,7.71,4.73.44.25,1.26.26,1.7.01,2.62-1.49,5.2-3.06,7.73-4.69.4-.26.53-.93.9-1.63H8.73Z"/>
    </g>
  </g>
</svg>