<?xml version="1.0" encoding="UTF-8"?>
<svg id="Layer_2" data-name="Layer 2" xmlns="http://www.w3.org/2000/svg" viewBox="0 0 36.58 36.58">
  <defs>
    <style>
      .cls-1 {
        fill: #f2f2f2;
      }

      .cls-2 {
        fill: none;
        stroke: #f2f2f2;
        stroke-miterlimit: 10;
        stroke-width: .58px;
      }
    </style>
  </defs>
  <g id="Layer_2-2" data-name="Layer 2">
    <g>
      <g id="OBJECTS">
        <path class="cls-2" d="m18.29,36.29h0C8.35,36.29.29,28.23.29,18.29H.29C.29,8.35,8.35.29,18.29.29h0c9.94,0,18,8.06,18,18h0c0,9.94-8.06,18-18,18Z"/>
      </g>
      <g>
        <path class="cls-1" d="m22.8,29.38h-9.03c-3.45,0-6.28-2.83-6.28-6.28v-9.62c0-3.45,2.83-6.28,6.28-6.28h9.03c3.45,0,6.28,2.83,6.28,6.28v9.62c0,3.45-2.83,6.28-6.28,6.28Zm0-1.66c1.23,0,2.39-.48,3.26-1.36s1.36-2.04,1.36-3.26v-9.62c0-1.23-.48-2.39-1.36-3.26s-2.04-1.36-3.26-1.36h-9.03c-1.23,0-2.39.48-3.26,1.36s-1.36,2.04-1.36,3.26v9.62c0,1.23.48,2.39,1.36,3.26s2.04,1.36,3.26,1.36h9.03Z"/>
        <path class="cls-1" d="m24.27,18.2c0,3.28-2.66,5.95-5.95,5.95s-5.95-2.66-5.95-5.95,2.66-5.95,5.95-5.95,5.95,2.66,5.95,5.95Zm-5.97-3.89c-2.15,0-3.89,1.74-3.89,3.89s1.74,3.89,3.89,3.89,3.89-1.74,3.89-3.89-1.74-3.89-3.89-3.89Z"/>
        <circle class="cls-1" cx="24.36" cy="12.17" r="1.41"/>
      </g>
    </g>
  </g>
</svg>